<svg width="198" height="48" viewBox="0 0 198 48" fill="none" xmlns="http://www.w3.org/2000/svg">
<g clip-path="url(#clip0_601_4259)">
<path d="M88.0473 24.1842C88.3145 23.9286 88.637 23.7356 88.99 23.6193C89.3438 23.503 89.7187 23.4664 90.0885 23.5124C90.1889 24.5035 90.6097 25.4368 91.2896 26.1746C90.6068 26.131 88.7615 24.9306 88.0342 24.1842H88.0473ZM120.381 21.7894C120.097 22.231 119.882 22.598 119.636 22.9401C119.534 23.0553 119.475 23.2004 119.467 23.3525C119.459 23.5046 119.502 23.655 119.591 23.7798C119.78 24.1444 119.929 24.5282 120.034 24.9244C120.064 25.1952 120.064 25.4683 120.034 25.7392C119.162 25.4146 118.343 24.9684 117.6 24.4143C117.803 23.5933 117.993 22.8468 118.182 22.0568L117.48 21.8827C117.247 22.4238 117.032 22.909 116.81 23.3879C116.683 23.6938 116.476 23.961 116.209 24.1621C115.943 24.3632 115.627 24.491 115.293 24.5325C114.718 24.6134 114.143 24.6568 113.568 24.7004C113.415 24.6827 113.264 24.6472 113.12 24.5947C113.508 23.8045 113.79 22.9682 113.96 22.1066L113.328 21.8951C113.05 22.4238 112.772 22.9028 112.532 23.4004C112.351 23.7661 112.085 24.0846 111.756 24.3299C111.426 24.5753 111.042 24.7407 110.635 24.8124C109.052 25.1457 107.43 25.2629 105.813 25.1607C105.213 25.1607 105.004 24.9057 104.966 24.321C104.878 23.0334 104.802 21.7396 104.714 20.452C104.676 19.942 104.625 19.4319 104.568 18.7789C104.063 19.4941 103.639 20.0726 103.241 20.676C103.148 20.8299 103.104 21.0074 103.114 21.186C103.197 22.1626 103.304 23.1453 103.387 24.1281C103.387 24.4454 103.387 24.7502 103.387 25.1234C103.263 25.1479 103.139 25.1645 103.013 25.1732C101.705 25.1732 100.397 25.1732 99.0946 25.1732C98.906 25.169 98.719 25.1397 98.5384 25.0861C98.43 25.0665 98.3266 25.0251 98.2349 24.9644C98.1439 24.9037 98.066 24.8251 98.0063 24.7334C97.9473 24.6417 97.9073 24.5391 97.8906 24.4317C97.8731 24.3244 97.8789 24.2147 97.9066 24.1095C97.9954 23.5435 98.1024 22.9774 98.1978 22.4051C98.248 22.0755 98.2924 21.7396 98.3557 21.298C97.7617 21.6152 97.2624 21.8578 96.7877 22.1439C96.6662 22.2445 96.5868 22.3867 96.5672 22.542C96.4973 22.9899 96.4718 23.4377 96.415 23.8918C96.3583 24.3459 96.3015 24.7253 96.2381 25.1358C95.1135 25.1358 94.058 25.1358 93.0024 25.1358C92.8241 25.1312 92.6494 25.0874 92.4914 25.0078C92.3327 24.9282 92.1944 24.8146 92.086 24.6755C91.6099 24.1462 91.2852 23.5023 91.144 22.8095C91.0938 22.5669 91.0683 22.3243 91.005 22.0818C90.9868 21.9739 90.9467 21.8708 90.887 21.7785C90.8281 21.6862 90.7502 21.6066 90.6585 21.5445C90.5675 21.4824 90.4641 21.4391 90.3556 21.417C90.2465 21.3949 90.1343 21.3946 90.0252 21.4162C89.6153 21.472 89.2179 21.5962 88.8495 21.7832C88.099 22.2119 87.5079 22.8658 87.1622 23.6492C87.0275 23.9105 86.9074 24.1717 86.8018 24.433C86.7269 24.6803 86.5645 24.8933 86.3447 25.0345C86.1249 25.1756 85.8621 25.2357 85.6015 25.2043C84.9121 25.1732 84.23 25.2043 83.5472 25.2043C82.9656 25.2043 82.384 25.2043 81.8031 25.2043C81.3729 25.2043 81.2404 25.0861 81.1392 24.7004C81.1086 24.5615 81.0941 24.4196 81.0948 24.2774C80.9113 21.0803 80.741 17.8831 80.5576 14.686C80.543 14.4772 80.5153 14.2694 80.4753 14.064C80.0786 14.5069 79.7051 14.9699 79.3572 15.451C79.2247 15.6196 79.1286 15.8131 79.0755 16.0196C79.0223 16.2261 79.0129 16.4412 79.0471 16.6515C79.224 18.6606 79.3696 20.6635 79.5399 22.6664C79.6411 23.8732 79.7488 25.0798 79.8879 26.2803C79.8922 26.4609 79.9344 26.6387 80.0109 26.8029C80.0873 26.9672 80.1965 27.1145 80.3326 27.236C80.468 27.3575 80.6274 27.4507 80.8014 27.5098C80.9747 27.569 81.1581 27.593 81.3415 27.5803C82.4793 27.5803 83.6229 27.5803 84.7607 27.5803C85.1385 27.6106 85.517 27.5349 85.8526 27.3621C86.1882 27.1892 86.467 26.9263 86.657 26.6038C86.7414 26.4878 86.8346 26.3777 86.9351 26.2741C88.1391 27.2773 89.5425 28.0229 91.0559 28.4636L91.9214 26.9459C92.1733 27.1775 92.4732 27.3529 92.8008 27.4603C93.1276 27.5676 93.4749 27.6043 93.8177 27.5679C94.1897 27.5337 94.5639 27.5337 94.9366 27.5679C95.0683 27.6032 95.2066 27.612 95.3428 27.5937C95.4789 27.5753 95.6099 27.5303 95.7279 27.4613C95.8458 27.3922 95.9477 27.3006 96.0292 27.1918C96.1108 27.0829 96.169 26.9591 96.2003 26.8277C96.2629 26.6759 96.3437 26.5318 96.4405 26.3985C96.5359 26.2877 96.6371 26.1818 96.7441 26.0813C96.8147 26.179 96.8722 26.2857 96.9144 26.3985C97.1044 27.3315 97.7421 27.6052 98.6083 27.5555H98.7976C100.018 27.5555 101.243 27.5555 102.47 27.5555C102.653 27.5823 102.839 27.5462 102.999 27.4532C103.157 27.3603 103.279 27.2163 103.342 27.0454C103.488 26.7406 103.696 26.4669 103.974 26.0502C104.12 26.3612 104.208 26.5416 104.278 26.722C104.344 26.9507 104.486 27.1513 104.68 27.2931C104.874 27.4347 105.11 27.5095 105.352 27.5057C106.035 27.5057 106.717 27.5741 107.4 27.5368C108.891 27.4622 110.389 27.3938 111.748 26.4545C111.756 26.5651 111.787 26.6728 111.841 26.7704C111.894 26.8679 111.968 26.9529 112.058 27.0197C112.149 27.0864 112.252 27.1331 112.362 27.1569C112.472 27.1807 112.586 27.1809 112.696 27.1574C113.214 27.1574 113.733 27.0827 114.244 27.0143C115.052 26.9278 115.831 26.6688 116.526 26.2555C117.442 26.7593 118.252 27.2445 119.111 27.655C119.787 27.9784 119.984 27.8852 120.375 27.2693C121.589 25.4842 121.177 23.6928 120.375 21.7832" fill="white"/>
<path d="M195.997 24.9427C195.942 25.0096 195.873 25.0634 195.794 25.1C195.715 25.1366 195.628 25.1552 195.542 25.1542C193.519 25.1542 191.49 25.1542 189.461 25.1542C189.368 25.1316 189.277 25.1004 189.19 25.0609C190.227 24.1075 191.433 23.3486 192.748 22.8216C192.945 22.7525 193.155 22.7246 193.364 22.7395C193.573 22.7546 193.776 22.8122 193.961 22.9087C194.71 23.269 195.36 23.8001 195.858 24.4575C195.915 24.5239 195.957 24.6013 195.983 24.6849C196.008 24.7684 196.014 24.8563 196.002 24.9427H195.997ZM197.469 22.6536C196.982 22.0127 196.364 21.4788 195.655 21.0862C195.369 20.8918 195.037 20.7726 194.691 20.74C194.344 20.7073 193.996 20.7622 193.677 20.8996C192.856 21.2504 192.066 21.6665 191.313 22.1436C190.087 22.9771 188.924 23.9163 187.743 24.8121C187.599 24.9567 187.424 25.0673 187.23 25.1355C186.763 25.179 186.289 25.1355 185.739 25.1355C186.177 24.3132 186.478 23.4269 186.63 22.5106L185.929 22.2805C185.808 22.5355 185.695 22.7469 185.613 22.9709C185.413 23.5603 185.033 24.0745 184.525 24.4431C184.017 24.8117 183.405 25.0167 182.774 25.0298C181.662 25.1168 180.537 25.1106 179.425 25.1355C179.258 25.1297 179.095 25.0982 178.938 25.0422C178.744 24.9907 178.576 24.8681 178.471 24.6993C178.365 24.5304 178.329 24.3283 178.37 24.1341C178.407 23.8106 178.483 23.5121 178.534 23.1637C178.629 22.5417 178.717 21.9756 178.831 21.2604C178.313 21.534 177.927 21.758 177.516 21.9445C177.364 22.0047 177.233 22.1087 177.142 22.243C177.051 22.3773 177.002 22.5356 177.004 22.6972C176.947 23.4871 176.827 24.2771 176.739 25.0484C176.668 25.087 176.591 25.1143 176.511 25.1293C175.311 25.1293 174.11 25.1293 172.903 25.1293C172.735 25.1416 172.569 25.0996 172.428 25.0097C172.288 24.9197 172.181 24.787 172.125 24.6317C172.052 24.4408 172.002 24.2427 171.973 24.0408L171.31 19.8421C171.247 19.4192 171.158 18.9962 171.057 18.4551C170.691 18.9713 170.425 19.3756 170.121 19.7737C170.044 19.867 169.99 19.9773 169.965 20.0952C169.939 20.2132 169.944 20.3355 169.976 20.4517C170.16 21.2541 170.305 22.0627 170.463 22.8651C170.538 23.2508 170.627 23.6302 170.665 24.0158C170.728 24.8058 170.463 25.1915 169.679 25.2972C168.676 25.4427 167.665 25.5382 166.652 25.5834C165.603 25.6331 165.464 25.4714 165.356 24.4327C165.356 24.2087 165.267 24.0843 164.946 24.1092C164.658 24.9027 164.459 25.7244 164.351 26.5599C164.206 27.5427 164.49 27.9221 165.489 28.0652C165.655 28.0871 165.821 28.0996 165.988 28.1025C167.13 28.1264 168.269 27.9966 169.376 27.7169C169.591 27.6867 169.793 27.5935 169.954 27.4493C170.115 27.3051 170.228 27.1166 170.279 26.9082C170.394 26.5164 170.538 26.1307 170.691 25.7513C170.719 25.7035 170.757 25.6622 170.803 25.63C170.848 25.5978 170.901 25.5756 170.955 25.5647C171 25.5647 171.108 25.6766 171.139 25.7638C171.171 25.8508 171.221 26.081 171.266 26.2365C171.518 27.2442 171.897 27.5676 172.972 27.5738C173.844 27.5738 174.716 27.5738 175.589 27.5738C175.793 27.6087 176.003 27.5691 176.18 27.4627C176.356 27.3563 176.488 27.1901 176.549 26.9954C176.602 26.8607 176.672 26.7332 176.758 26.6159C176.878 26.4479 176.909 26.1867 177.232 26.1307C177.313 26.2925 177.385 26.4586 177.447 26.6283C177.499 26.903 177.654 27.1484 177.88 27.3165C178.107 27.4845 178.39 27.563 178.673 27.5365C178.825 27.5365 178.964 27.5365 179.109 27.5365C180.62 27.5365 182.142 27.6547 183.609 27.0762C184.089 27.7604 184.842 27.4307 185.505 27.5986L184.664 29.6265L185.372 29.869L186.636 27.9594C186.729 27.8119 186.863 27.6932 187.022 27.6173C187.181 27.5413 187.358 27.5112 187.534 27.5302C189.341 27.5302 191.143 27.5302 192.95 27.5302H195.573C195.801 27.5302 196.028 27.5302 196.205 27.3126C196.93 26.3358 197.479 25.2439 197.83 24.0843C197.898 23.8367 197.907 23.5766 197.855 23.325C197.803 23.0734 197.693 22.8371 197.533 22.635" fill="white"/>
<path d="M39.8304 18.1688C39.8132 18.017 39.8285 17.8633 39.8753 17.7176C39.9221 17.5719 39.9994 17.4375 40.1022 17.3229C40.4814 16.8875 40.829 16.4335 41.1956 15.9793C40.4372 15.2454 39.369 14.8597 39.0783 13.6157C38.6423 14.1631 38.3073 14.6482 37.9091 15.0837C37.7569 15.2285 37.6645 15.4234 37.6494 15.6311C37.6341 15.8388 37.6974 16.0448 37.8269 16.2095C38.063 16.5838 38.1939 17.0131 38.2062 17.4536C38.2441 17.8205 38.2757 18.1875 38.3136 18.5607L38.9456 24.6814C38.9553 24.8098 38.9553 24.9386 38.9456 25.067C38.8933 25.0922 38.8382 25.111 38.7813 25.123C37.1444 25.123 35.5074 25.123 33.8641 25.123C33.4718 25.1479 33.0848 25.0232 32.7834 24.7746C32.9746 24.4707 33.1456 24.1549 33.2953 23.8292C33.4301 23.4859 33.5358 23.1322 33.6113 22.7718C33.6776 22.5437 33.6834 22.3028 33.6281 22.0719C33.5727 21.841 33.4582 21.628 33.2953 21.4531C32.4548 20.5574 30.5018 19.5497 28.6879 20.2962C28.5165 20.3567 28.3729 20.4759 28.2834 20.632C27.9927 21.4407 27.7462 22.2555 27.4492 23.1636C27.7146 23.1636 27.9042 23.1636 28.0812 23.2197C28.2818 23.2157 28.4812 23.2494 28.669 23.3192C29.1228 23.582 29.4709 23.9905 29.6549 24.4761C29.0916 24.8065 28.4522 24.9906 27.7967 25.0111C26.3874 25.0919 24.9779 25.1043 23.5686 25.1354C22.886 25.1354 22.7343 24.9986 22.6837 24.3206C22.6332 23.6426 22.6016 23.0766 22.57 22.4545C22.4225 19.813 22.2814 17.1695 22.1465 14.5239C22.1465 14.3497 22.0959 14.1631 22.0706 13.9889H21.9316C21.6156 14.443 21.2996 14.9157 20.9709 15.3449C20.8301 15.518 20.7271 15.7178 20.6684 15.9319C20.6097 16.146 20.5965 16.3696 20.6297 16.5889C20.813 18.5732 20.9583 20.5574 21.1226 22.5416C21.2237 23.7234 21.3185 24.9115 21.4576 26.0934C21.584 27.1197 22.0896 27.5053 23.1261 27.5177C24.0805 27.5177 25.0222 27.5177 25.9892 27.5177C27.5975 27.5863 29.1908 27.1883 30.5713 26.3733C30.5713 26.3733 30.6471 26.3733 30.742 26.3733C31.0422 26.7621 31.4384 27.0691 31.893 27.2651C32.3476 27.461 32.8455 27.5394 33.3396 27.4929H39.0278C39.1514 27.5053 39.2751 27.4702 39.3728 27.3948C39.4707 27.3194 39.535 27.2097 39.5523 27.0886C39.6725 26.6594 39.8178 26.2302 39.9758 25.8072C40.2142 25.1715 40.3069 24.4919 40.2476 23.8168C40.1086 21.9134 40.0074 20.01 39.8747 18.1067" fill="white"/>
<path d="M13.6332 24.0097C13.6911 23.8675 13.7609 23.7303 13.8417 23.5992C14.5243 22.6413 15.3459 22.6911 15.8895 23.7298C16.1736 24.2853 16.3576 24.8852 16.433 25.5026C15.4362 25.1303 14.4945 24.6282 13.6332 24.0097ZM5.78345 23.5433C4.73281 23.4456 3.69996 23.2113 2.71183 22.8466C2.84216 22.7517 2.97948 22.6665 3.12264 22.5916C3.66618 22.3614 4.22235 22.1438 4.77854 21.9136C5.33471 21.6835 5.84665 21.5217 5.96673 20.8997L6.16899 20.9495C6.16899 21.7021 6.22586 22.4485 6.2385 23.2011C6.2385 23.4935 6.00465 23.5557 5.76448 23.5744L5.78345 23.5433ZM18.0762 25.6332C17.8235 24.7686 17.539 23.9102 17.2863 23.0457C17.1475 22.4651 16.8628 21.9283 16.4583 21.4844C16.3626 21.3546 16.2409 21.2454 16.1008 21.1636C15.9606 21.0818 15.805 21.0292 15.6434 21.0087C15.4818 20.9883 15.3176 21.0007 15.161 21.0451C15.0045 21.0894 14.8587 21.1648 14.7329 21.2666C14.3155 21.5377 13.9497 21.8788 13.6521 22.2744C13.1738 22.9673 12.735 23.6858 12.3375 24.4266C12.2443 24.6438 12.0901 24.8305 11.8932 24.9648C11.6963 25.0992 11.4646 25.1757 11.2251 25.1854C10.4541 25.1854 9.68932 25.1854 8.92462 25.1854C8.77787 25.1982 8.62995 25.1812 8.49019 25.1354C8.35042 25.0896 8.22165 25.016 8.11202 24.9192C8.00232 24.8223 7.91409 24.7043 7.85273 24.5725C7.79144 24.4407 7.75824 24.2978 7.75533 24.1528C7.75533 23.9911 7.71114 23.8294 7.69848 23.6614C7.55944 21.7954 7.42666 19.9791 7.28763 18.1441C7.28763 17.9078 7.22445 17.6777 7.16757 17.3169C6.83892 17.7025 6.59876 18.0073 6.3333 18.281C6.21496 18.3961 6.12669 18.5377 6.07606 18.6937C6.02543 18.8497 6.01393 19.0154 6.04257 19.1767C6.12473 19.7987 6.1121 19.7987 5.518 20.0164C4.76589 20.3088 4.00747 20.5762 3.26801 20.8997C2.95923 21.0302 2.69571 21.2464 2.50958 21.5217C2.09019 22.2021 1.72464 22.9133 1.41619 23.649C1.08753 24.4825 1.34034 24.9864 2.21252 25.2787C3.08471 25.571 3.81154 25.7016 4.61421 25.9007C4.73579 25.9453 4.87032 25.9409 4.98863 25.8885C5.10695 25.8361 5.19951 25.7399 5.24623 25.6208C5.4232 25.3222 5.62544 25.0361 5.82136 24.7438C5.94777 24.5572 6.08682 24.4327 6.33962 24.582C6.42179 24.9926 6.49131 25.4217 6.59876 25.8261C6.683 26.3492 6.96481 26.8218 7.38779 27.1494C7.8108 27.4768 8.34387 27.6352 8.88036 27.5926C9.51236 27.5926 10.1444 27.5926 10.7764 27.5926C11.1096 27.6284 11.4457 27.5567 11.734 27.3885C12.0224 27.2202 12.2475 26.9645 12.3754 26.6596C12.4702 26.4668 12.5903 26.2864 12.7167 26.0749C14.0018 26.9214 15.4018 27.5852 16.8754 28.0467C17.2925 27.3624 17.6781 26.7342 18.0446 26.0935C18.1028 25.9476 18.1028 25.7854 18.0446 25.6394" fill="white"/>
<path d="M126.335 25.1607C126.335 25.1047 126.304 25.0425 126.285 24.9865C126.664 24.7191 127.043 24.464 127.409 24.1904C127.776 23.9167 128.123 23.6243 128.471 23.3444C128.971 23.8283 129.289 24.464 129.375 25.1483C128.358 25.1483 127.346 25.1483 126.335 25.1483V25.1607ZM132.282 15.9797C131.587 15.2644 130.708 14.773 130.55 13.6099C130.133 14.1386 129.812 14.5926 129.451 14.9969C129.277 15.1531 129.17 15.3677 129.15 15.5983C129.13 15.8288 129.199 16.0583 129.343 16.241C129.595 16.6186 129.716 17.0654 129.691 17.5161C129.691 17.8271 129.742 18.1381 129.748 18.4367C129.836 19.4535 129.514 20.4636 128.851 21.2482L128.478 20.8066C127.395 19.4306 126.159 18.1787 124.793 17.0745C124.047 16.4525 123.213 15.9548 122.404 15.4137C122.185 15.2924 121.954 15.1925 121.715 15.1151C121.482 15.7711 121.363 16.4606 121.361 17.1553C121.343 17.4744 121.413 17.7924 121.565 18.0751C121.716 18.3578 121.942 18.5946 122.221 18.7601C122.852 19.1582 123.453 19.5314 124.066 19.9109C124.12 19.9173 124.176 19.9173 124.23 19.9109C124.319 19.7429 124.401 19.5937 124.49 19.4133C125.733 20.2004 126.853 21.1623 127.814 22.2683C127.776 22.374 127.77 22.4238 127.744 22.4425C126.799 23.3934 125.725 24.2118 124.553 24.8745C124.433 24.9429 124.249 25.0238 124.23 25.1233C124.072 25.9009 123.946 26.6784 123.813 27.4311C123.933 27.487 123.971 27.5119 124.009 27.5119H129.697C129.802 27.5205 129.906 27.4881 129.986 27.4218C130.067 27.3553 130.117 27.2603 130.127 27.1573C130.234 26.6722 130.342 26.1932 130.443 25.7142C130.623 24.9484 130.548 24.1457 130.229 23.4253C130.095 23.1205 129.963 22.8032 129.812 22.5296C129.758 22.4416 129.735 22.3392 129.745 22.2373C129.755 22.1355 129.798 22.0395 129.868 21.9635C130.704 20.9233 131.107 19.6089 130.993 18.2874C130.965 17.898 131.095 17.5135 131.353 17.2175C131.695 16.8133 131.985 16.3778 132.308 15.9735" fill="white"/>
<path d="M150.244 22.206C149.84 21.9945 149.815 21.8701 150.042 21.4783C150.119 21.2973 150.242 21.1389 150.399 21.0185C150.556 20.898 150.743 20.8196 150.94 20.7908C151.137 20.762 151.338 20.7839 151.524 20.8542C151.71 20.9245 151.875 21.0409 152.001 21.1922C152.402 21.5494 152.685 22.0178 152.81 22.5357C151.942 22.7253 151.034 22.6086 150.244 22.206ZM154.372 22.1003C154.23 21.1638 153.881 20.2696 153.347 19.4816C152.595 18.4117 151.641 18.2873 150.7 19.1643C150.136 19.6711 149.681 20.2852 149.365 20.9694C149.05 21.6536 148.878 22.3938 148.86 23.1453C148.839 23.4054 148.902 23.6654 149.039 23.8887C149.176 24.1119 149.381 24.2871 149.625 24.3893C150.17 24.6461 150.774 24.7535 151.376 24.7003C151.658 24.6492 151.918 24.5197 152.128 24.3271C152.319 24.1357 152.493 23.9275 152.646 23.7051C152.747 23.5931 152.937 23.4127 153.012 23.4439C153.166 23.5273 153.281 23.6652 153.335 23.8295C153.448 24.2836 153.506 24.75 153.606 25.2042C153.668 25.4708 153.628 25.7506 153.492 25.9895C153.357 26.2284 153.137 26.4095 152.873 26.4979C151.272 27.4213 149.446 27.8986 147.59 27.8788C146.944 27.8785 146.31 27.7181 145.745 27.4123C145.289 27.2119 144.916 26.8653 144.686 26.4292C144.456 25.9931 144.384 25.4932 144.48 25.0113C144.622 24.3311 144.8 23.6584 145.011 22.996C145.081 22.741 145.194 22.5046 145.302 22.2247C145.031 22.0505 144.892 22.1189 144.777 22.318C144.506 22.7969 144.209 23.2697 143.962 23.7611C143.39 24.863 143.13 26.0964 143.21 27.3314C143.202 28.0051 143.433 28.6605 143.866 29.1832C144.298 29.706 144.902 30.0633 145.574 30.1927C146.648 30.4455 147.766 30.4625 148.848 30.2425C150.505 29.9231 152.057 29.2123 153.373 28.1711C153.639 27.9756 153.838 27.7041 153.942 27.3936C154.551 25.7022 154.691 23.8812 154.346 22.1189" fill="white"/>
<path d="M53.482 22.0443C53.3556 22.461 53.2165 22.8467 53.1091 23.2448C53.0391 23.4092 53.0072 23.5869 53.0157 23.765C53.0241 23.943 53.0728 24.117 53.1582 24.2742C53.2435 24.4315 53.3634 24.5681 53.509 24.674C53.6547 24.78 53.8225 24.8527 54.0002 24.8869C54.4472 25.0442 54.9163 25.1323 55.3907 25.1482C58.279 25.1482 61.1611 25.1482 64.0431 25.1482C64.1209 25.1542 64.1991 25.1542 64.2769 25.1482C64.3527 24.5261 64.2327 24.2835 63.0634 22.8902C63.4363 22.2682 63.8155 21.6462 64.2074 21.0242C64.9237 21.9496 65.3491 23.0612 65.4311 24.2218C65.5131 25.3824 65.2481 26.5412 64.6688 27.5553H64.0367C61.2749 27.5553 58.5192 27.5553 55.7636 27.5553C55.3654 27.5553 54.9736 27.518 54.5817 27.4807C52.7615 27.3003 51.8577 26.1309 52.1484 24.3706C52.2947 23.6054 52.5887 22.8748 53.0143 22.2184C53.1218 22.0505 53.2355 21.9074 53.5136 22.0816" fill="white"/>
<path d="M158.834 24.246C158.335 23.9785 158.303 23.7794 158.644 23.3316C158.728 23.1693 158.853 23.0314 159.008 22.9315C159.162 22.8315 159.341 22.773 159.525 22.7617C159.71 22.7504 159.894 22.7867 160.06 22.867C160.226 22.9473 160.367 23.0689 160.471 23.2196C160.847 23.576 161.126 24.0184 161.286 24.5072C160.462 24.6954 159.598 24.6033 158.834 24.246ZM161.994 22.2617C161.779 21.806 161.494 21.3862 161.147 21.0176C160.971 20.7809 160.708 20.6212 160.414 20.5723C160.12 20.5235 159.818 20.5896 159.574 20.7564C159.143 20.9995 158.762 21.3178 158.448 21.6957C157.826 22.4761 157.457 23.4237 157.393 24.4139C157.339 24.6499 157.335 24.894 157.379 25.1317C157.425 25.3694 157.518 25.5958 157.653 25.7973C157.789 25.9988 157.965 26.1713 158.169 26.3045C158.375 26.4376 158.605 26.5287 158.846 26.5722C159.049 26.6283 159.258 26.6407 159.478 26.678C159.713 26.72 159.953 26.6988 160.176 26.6167C160.398 26.5345 160.594 26.3945 160.743 26.2115C160.913 26.0124 161.046 25.7699 161.216 25.5895C161.28 25.5024 161.412 25.4029 161.501 25.4153C161.589 25.4278 161.703 25.5521 161.741 25.6455C161.81 25.8078 161.834 25.9851 161.813 26.1597C161.791 26.3343 161.722 26.5001 161.615 26.6407C160.745 28.0236 159.517 29.1531 158.056 29.9125C157.495 30.2534 156.86 30.4637 156.203 30.5273C155.547 30.5909 154.883 30.5061 154.265 30.2795C154.134 30.2217 153.995 30.1859 153.853 30.1738C153.746 30.1738 153.645 30.3044 153.43 30.4474C154.825 31.2025 156.331 31.7416 157.892 32.046C158.273 32.1131 158.664 32.0983 159.038 32.0028C159.412 31.9073 159.761 31.7331 160.06 31.4925C160.443 31.2115 160.78 30.8736 161.059 30.491C162.778 27.9283 163.207 25.1977 161.975 22.3115" fill="white"/>
<path d="M73.7892 24.4453C74.1299 23.7735 74.4902 23.0831 74.876 22.3367C75.0216 22.4735 75.1541 22.5606 75.2553 22.6726C75.8646 23.279 76.3399 24.0022 76.653 24.7972C76.9667 25.5923 77.1101 26.4422 77.0752 27.2941C76.9732 29.033 76.2162 30.6718 74.9517 31.8909C74.6074 32.2632 74.1627 32.5324 73.6698 32.6678C73.177 32.803 72.6553 32.7989 72.1646 32.656C70.9371 32.3255 69.755 31.8492 68.6443 31.2377C68.7075 31.1009 68.7644 31.0014 68.8149 30.8894C69.3269 31.0076 69.8072 31.1134 70.2875 31.2315C70.8593 31.3584 71.458 31.2858 71.9814 31.0262C73.4769 30.3349 74.7785 29.2952 75.7736 27.997C76.3108 27.3066 76.3108 27.0391 75.7226 26.3798C75.1352 25.7205 74.4589 25.1358 73.8271 24.4453" fill="white"/>
<path d="M136.113 14.0078C136.113 14.2318 136.182 14.4495 136.188 14.6796L136.492 21.4347C136.53 22.3366 136.574 23.2386 136.599 24.1342C136.61 25.0616 136.431 25.9817 136.075 26.84C135.923 27.1701 135.755 27.4919 135.569 27.8042H135.436C135.392 27.5118 135.335 27.2257 135.31 26.9334C135.126 24.7065 134.949 22.4859 134.767 20.2529C134.665 19.071 134.545 17.8892 134.457 16.7012C134.426 16.4892 134.459 16.273 134.551 16.0791C135.006 15.3762 135.512 14.6983 135.999 14.0203H136.113" fill="white"/>
<path d="M44.185 27.7419C44.1344 27.2194 44.0712 26.6907 44.0269 26.162C43.8437 23.9103 43.6667 21.6648 43.4834 19.4193C43.4076 18.4987 43.3317 17.5533 43.2432 16.6575C43.224 16.5059 43.2354 16.3521 43.2766 16.2048C43.3178 16.0576 43.3881 15.9197 43.4834 15.7992C43.9385 15.1771 44.3682 14.5551 44.8928 13.8274C44.9497 14.6422 45.0066 15.314 45.0382 15.9734C45.1646 18.6169 45.3037 21.2604 45.3921 23.9103C45.4379 25.0626 45.1925 26.2082 44.6779 27.2443C44.5831 27.4371 44.4441 27.6175 44.3303 27.8041L44.185 27.7419Z" fill="white"/>
<path d="M69.94 13.9953C69.9842 14.7044 70.0347 15.4136 70.0727 16.1164C70.1928 18.704 70.3318 21.2854 70.4267 23.8729C70.4713 25.0466 70.2217 26.213 69.6998 27.2692C69.5987 27.4558 69.4597 27.6299 69.3459 27.8103L69.2194 27.773C69.1563 27.151 69.0994 26.529 69.0488 25.9567C68.8002 23.0789 68.5559 20.1969 68.3157 17.3107C68.3191 17.2901 68.3191 17.2691 68.3157 17.2485C68.2399 16.9209 68.2457 16.5801 68.3326 16.2551C68.4196 15.9302 68.585 15.6308 68.815 15.3825C69.2005 14.9408 69.5039 14.4308 69.8452 13.958L69.9463 14.0016" fill="white"/>
<path d="M3.87472 15.4384C4.12753 15.1585 4.34873 14.8972 4.61418 14.5986L6.32696 15.6374C5.91615 16.1599 5.54957 16.6388 5.14508 17.1614L3.68511 16.3341L2.97724 17.1676L1.25183 16.1599C1.66264 15.625 2.04185 15.1336 2.44003 14.6049L3.87472 15.4508" fill="white"/>
<path d="M101.067 16.894C101.478 16.3466 101.844 15.8615 102.249 15.3389L103.69 16.1787C103.917 15.9112 104.139 15.65 104.417 15.3328L106.136 16.384L104.947 17.9017L103.507 17.0806C103.253 17.3543 103.026 17.6031 102.774 17.8892L101.067 16.894Z" fill="white"/>
<path d="M150.314 14.6794L151.742 15.5316L152.482 14.6794L154.195 15.712L153.019 17.236L151.559 16.4211L150.851 17.236L149.132 16.2345L150.314 14.6794Z" fill="white"/>
<path d="M95.8968 20.2343L94.184 19.2267L95.3596 17.6903C95.8524 17.964 96.3081 18.2252 96.8133 18.5176L97.5339 17.6716L99.2402 18.7042C98.8741 19.2515 98.4693 19.7243 98.0712 20.2343L96.6109 19.4195L95.8968 20.2343Z" fill="white"/>
<path d="M61.1864 18.7784L60.0046 20.2775L58.5319 19.4627L57.8241 20.2775L56.105 19.2698C56.5221 18.7349 56.9013 18.2373 57.2869 17.721L58.7405 18.5607L59.4547 17.7148L61.1864 18.7598" fill="white"/>
<path d="M176.935 17.4165L178.862 18.617L177.599 20.2467L175.67 19.0773L176.935 17.4165Z" fill="white"/>
<path d="M94.9236 16.6577L96.0803 15.1462L97.8623 16.2223C97.4772 16.7262 97.1169 17.1865 96.7121 17.7214L94.9236 16.6577Z" fill="white"/>
<path d="M3.74194 38.2603V41.3704H7.69204C8.95611 41.3704 9.53759 40.7484 9.53759 39.8278C9.53759 38.9072 8.94977 38.2852 7.69204 38.2852L3.74194 38.2603ZM1.63098 36.3943H7.79948C10.3276 36.3943 11.7054 37.5761 11.7054 39.7718C11.7054 41.9675 10.3213 43.2116 7.79948 43.2116H3.74194V47.4475H1.63098V36.3943Z" fill="white"/>
<path d="M13.6584 43.9764V39.5601H15.6746V43.7462C15.6746 44.9903 16.3066 45.7927 17.5706 45.7927C18.8347 45.7927 19.4667 44.9778 19.4667 43.7462V39.5601H21.5018V43.9702C21.5018 46.085 20.0671 47.6089 17.5959 47.6089C15.1247 47.6089 13.6458 46.085 13.6458 43.9702" fill="white"/>
<path d="M28.2264 45.8736C28.7079 45.9011 29.1867 45.7855 29.6007 45.5421C30.0147 45.2987 30.3448 44.9384 30.5484 44.5082C30.752 44.0779 30.8197 43.5973 30.7425 43.1288C30.6654 42.6602 30.4471 42.2253 30.1159 41.8803C29.7847 41.5352 29.3558 41.296 28.8849 41.1936C28.414 41.0913 27.9227 41.1304 27.4746 41.306C27.0266 41.4816 26.6424 41.7856 26.3719 42.1786C26.1014 42.5715 25.957 43.0353 25.9575 43.51C25.9336 43.8153 25.9749 44.1222 26.0787 44.4109C26.1825 44.6995 26.3465 44.9637 26.5602 45.1862C26.7739 45.4088 27.0325 45.585 27.3195 45.7034C27.6065 45.8218 27.9154 45.8797 28.2264 45.8736ZM25.9765 47.4473H24.0109V35.9836H25.9954V40.8042C26.2863 40.3569 26.6903 39.9915 27.1679 39.744C27.6453 39.4965 28.18 39.3753 28.7194 39.3923C30.8114 39.3923 32.5115 40.9349 32.5115 43.51C32.5115 46.0851 30.8114 47.6153 28.7194 47.6153C28.1796 47.6381 27.6428 47.5243 27.1603 47.2847C26.6779 47.0451 26.266 46.6878 25.9638 46.2469L25.9765 47.4473Z" fill="white"/>
<path d="M36.6955 35.9897H34.6794V47.4473H36.6955V35.9897Z" fill="white"/>
<path d="M39.2869 47.4472H41.303V39.5601H39.2869V47.4472ZM39.2427 38.3161H41.3599V35.9524H39.2679L39.2427 38.3161Z" fill="white"/>
<path d="M47.484 41.1279C46.2579 41.1279 45.411 42.1853 45.411 43.5039C45.411 44.8227 46.2389 45.8925 47.503 45.8925C47.8869 45.9117 48.2686 45.8238 48.604 45.6389C48.9395 45.454 49.2151 45.1797 49.3991 44.8475H51.3583C51.2825 45.6686 50.3091 47.6528 47.4587 47.6528C46.3697 47.6113 45.3395 47.1563 44.584 46.3834C43.8284 45.6104 43.4064 44.5796 43.4064 43.5071C43.4064 42.4345 43.8284 41.4037 44.584 40.6307C45.3395 39.8578 46.3697 39.4029 47.4587 39.3613C50.2966 39.3613 51.2509 41.3144 51.3773 42.1728H49.3801C49.1938 41.8426 48.9178 41.5698 48.5829 41.3853C48.248 41.2007 47.8675 41.1115 47.484 41.1279Z" fill="white"/>
<path d="M59.1513 36.3879H57.0277V47.4474H59.1513V36.3879Z" fill="white"/>
<path d="M64.0432 47.4475H62.046V39.5603H64.0432V40.879C64.3094 40.4214 64.6942 40.0415 65.1583 39.7782C65.6225 39.5148 66.1493 39.3774 66.685 39.3799C68.6822 39.3799 70.0031 40.8292 70.0031 42.8384V47.435H67.9744V43.2302C67.9744 41.9862 67.2349 41.1589 66.0404 41.1589C65.7664 41.15 65.4936 41.1983 65.24 41.3008C64.9864 41.4032 64.7577 41.5573 64.569 41.753C64.3802 41.9487 64.2359 42.1815 64.1453 42.4362C64.0546 42.6908 64.0198 42.9614 64.0432 43.2302V47.4475Z" fill="white"/>
<path d="M76.6143 47.5531H74.7246L71.1028 39.5664H73.3721L75.7168 45.0837L78.0615 39.5664H80.1215L76.6143 47.5531Z" fill="white"/>
<path d="M82.9657 42.465H87.1179C87.013 42.0096 86.7495 41.6047 86.3732 41.3197C85.9976 41.0348 85.5324 40.8877 85.0578 40.9038C84.5766 40.8739 84.1013 41.0152 83.7169 41.3017C83.3333 41.5883 83.0661 42.0012 82.9657 42.465ZM89.2289 43.6158V43.8334H82.9089C82.9155 44.1254 82.981 44.4131 83.1004 44.6801C83.2205 44.9471 83.393 45.1882 83.6077 45.3893C83.8232 45.5905 84.0765 45.7479 84.3531 45.8524C84.6305 45.9568 84.9253 46.0063 85.2223 45.9981C85.5921 46.0313 85.9648 45.9697 86.304 45.8193C86.6425 45.6689 86.9366 45.4348 87.1564 45.1397H89.1408C89.0142 45.9483 87.9273 47.6277 85.2223 47.6277C84.656 47.658 84.0889 47.5725 83.5582 47.3765C83.0268 47.1807 82.5428 46.8786 82.1358 46.4894C81.7289 46.1002 81.4086 45.6323 81.1946 45.1153C80.9806 44.5983 80.878 44.0432 80.8925 43.4851C80.8648 42.9368 80.9537 42.3888 81.1531 41.8761C81.3526 41.3633 81.6576 40.897 82.0499 40.5067C82.4423 40.1165 82.9133 39.8109 83.4323 39.6094C83.9506 39.4079 84.5067 39.3149 85.0643 39.3362C87.516 39.3362 89.2354 41.0219 89.2354 43.5908" fill="white"/>
<path d="M93.8178 44.2255C92.0671 44.1011 90.8915 43.2863 90.8915 41.7374C90.8915 40.1886 92.2563 39.324 94.3994 39.324C97.2624 39.324 98.0835 40.792 98.299 41.5508H96.1814C95.9608 41.2992 95.682 41.103 95.369 40.9786C95.0553 40.8542 94.7168 40.8052 94.3805 40.8355C93.4262 40.8355 92.9202 41.1465 92.9202 41.6317C92.9202 42.1169 93.2485 42.347 94.0514 42.4527L95.404 42.5958C97.5659 42.7824 98.4438 43.591 98.4438 45.1461C98.4438 46.7011 97.1801 47.6341 94.7597 47.6341C91.8014 47.6341 90.8412 45.936 90.6891 45.2083H92.8445C92.9202 45.3887 93.4072 46.0915 94.7401 46.0915C95.8589 46.0915 96.3772 45.7184 96.3772 45.2207C96.3772 44.7231 96.0991 44.4432 95.2016 44.3312C94.6331 44.2877 94.3484 44.2566 93.7988 44.1944" fill="white"/>
<path d="M106.888 47.4475H104.688C102.793 47.4475 101.926 46.558 101.926 44.8724V41.2646H99.7396V39.5604H101.926V36.3943H103.93V39.5604H106.875V41.2522H103.93V44.2565C103.93 45.258 104.259 45.6561 105.352 45.6561H106.875L106.888 47.4475Z" fill="white"/>
<path d="M111.021 47.4475H109.024V39.5604H111.021V40.879C111.284 40.4238 111.665 40.0452 112.124 39.782C112.583 39.5186 113.106 39.3799 113.638 39.38C114.244 39.358 114.843 39.5143 115.359 39.8289C115.874 40.1436 116.283 40.6023 116.532 41.1465C116.795 40.6058 117.212 40.1515 117.731 39.838C118.25 39.5247 118.85 39.3656 119.459 39.38C121.475 39.38 122.764 40.8293 122.764 42.8383V47.4351H120.748V43.2302C120.748 41.9862 120.04 41.1589 118.852 41.1589C118.579 41.1474 118.306 41.1942 118.053 41.2962C117.8 41.3981 117.572 41.5528 117.385 41.7496C117.198 41.9464 117.057 42.1806 116.971 42.4361C116.885 42.6918 116.856 42.9626 116.886 43.2302V47.4351H114.871V43.2302C114.871 41.9862 114.169 41.1589 112.974 41.1589C112.701 41.1474 112.428 41.1942 112.175 41.2962C111.922 41.3981 111.694 41.5528 111.507 41.7496C111.32 41.9464 111.179 42.1806 111.093 42.4361C111.007 42.6918 110.978 42.9626 111.009 43.2302L111.021 47.4475Z" fill="white"/>
<path d="M126.841 42.4652H131C130.892 42.0099 130.627 41.6055 130.25 41.3208C129.873 41.0362 129.408 40.8888 128.933 40.904C128.452 40.8742 127.976 41.0154 127.592 41.3019C127.208 41.5886 126.941 42.0014 126.841 42.4652ZM133.104 43.616V43.8337H126.784C126.791 44.1253 126.857 44.4127 126.977 44.6793C127.098 44.9459 127.27 45.1866 127.485 45.3877C127.7 45.5887 127.952 45.7461 128.229 45.8508C128.506 45.9556 128.8 46.0057 129.097 45.9983C129.467 46.0321 129.84 45.9708 130.179 45.8204C130.518 45.6699 130.812 45.4354 131.031 45.1399H133.003C132.876 45.9485 131.789 47.628 129.084 47.628C128.518 47.6573 127.952 47.5711 127.421 47.3749C126.89 47.1786 126.407 46.8765 126 46.4875C125.594 46.0985 125.273 45.631 125.059 45.1144C124.845 44.5978 124.741 44.0432 124.755 43.4853C124.728 42.9372 124.818 42.3897 125.017 41.8773C125.217 41.365 125.523 40.8991 125.915 40.5091C126.307 40.119 126.777 39.8134 127.296 39.6115C127.814 39.4097 128.37 39.316 128.926 39.3365C131.385 39.3365 133.098 41.0222 133.098 43.5911" fill="white"/>
<path d="M137.162 47.4475H135.164V39.5603H137.162V40.879C137.428 40.4214 137.812 40.0415 138.277 39.7782C138.741 39.5148 139.267 39.3774 139.803 39.3799C141.801 39.3799 143.121 40.8292 143.121 42.8384V47.435H141.092V43.2302C141.092 41.9862 140.354 41.1589 139.159 41.1589C138.885 41.15 138.612 41.1983 138.358 41.3008C138.105 41.4032 137.876 41.5573 137.687 41.753C137.499 41.9487 137.354 42.1815 137.263 42.4362C137.173 42.6908 137.138 42.9614 137.162 43.2302V47.4475Z" fill="white"/>
<path d="M151.825 47.4475H149.619C147.723 47.4475 146.863 46.558 146.863 44.8724V41.2646H144.676V39.5604H146.863V36.3943H148.879V39.5604H151.825V41.2522H148.879V44.2565C148.879 45.258 149.208 45.6561 150.295 45.6561H151.825V47.4475Z" fill="white"/>
<path d="M157.525 36.3943H166.987V38.2105H159.63V40.8106H163.87V42.6331H159.63V47.4475H157.525V36.3943Z" fill="white"/>
<path d="M167.922 43.9764V39.5601H169.938V43.7462C169.938 44.9903 170.57 45.7927 171.834 45.7927C173.099 45.7927 173.73 44.9778 173.73 43.7462V39.5601H175.759V43.9702C175.759 46.085 174.331 47.6089 171.86 47.6089C169.388 47.6089 167.909 46.085 167.909 43.9702" fill="white"/>
<path d="M180.265 47.4473H178.268V39.5602H180.265V40.8789C180.537 40.4212 180.927 40.0425 181.395 39.7814C181.864 39.5203 182.394 39.386 182.932 39.3923C184.936 39.3923 186.257 40.8415 186.257 42.8507V47.4473H184.197V43.2425C184.227 42.9771 184.198 42.7085 184.114 42.4547C184.029 42.2009 183.89 41.968 183.706 41.7716C183.522 41.5753 183.298 41.4201 183.047 41.3165C182.797 41.2129 182.528 41.1634 182.256 41.1712C181.982 41.1624 181.709 41.2107 181.456 41.3131C181.202 41.4155 180.973 41.5696 180.785 41.7653C180.596 41.961 180.452 42.1939 180.361 42.4485C180.27 42.7031 180.235 42.9737 180.259 43.2425L180.265 47.4473Z" fill="white"/>
<path d="M192.578 41.1401C192.095 41.1063 191.614 41.2163 191.196 41.4557C190.777 41.695 190.443 42.0526 190.234 42.482C190.025 42.9113 189.953 43.3926 190.026 43.863C190.1 44.3334 190.315 44.7712 190.645 45.1193C190.975 45.4676 191.403 45.71 191.874 45.8153C192.346 45.9204 192.839 45.8835 193.289 45.7092C193.739 45.5348 194.125 45.2312 194.397 44.8379C194.669 44.4445 194.815 43.9796 194.815 43.5037C194.836 43.2015 194.795 42.898 194.692 42.6123C194.59 42.3267 194.428 42.0648 194.218 41.8431C194.009 41.6214 193.755 41.4446 193.472 41.3235C193.19 41.2026 192.886 41.1401 192.578 41.1401ZM194.796 46.2033C194.505 46.658 194.097 47.0284 193.612 47.2766C193.128 47.5246 192.586 47.6416 192.04 47.6153C189.961 47.6153 188.248 46.0727 188.248 43.5037C188.248 40.9348 189.961 39.3984 192.04 39.3984C192.577 39.3689 193.112 39.4787 193.592 39.7166C194.073 39.9546 194.481 40.3125 194.777 40.7544V35.9897H196.793V47.4473H194.796V46.2033Z" fill="white"/>
<path d="M145.011 7.83753C144.784 7.84262 144.557 7.80021 144.348 7.71309C144.177 7.63536 144.024 7.52782 143.893 7.39586C143.775 7.27808 143.683 7.13856 143.621 6.98534C143.567 6.85921 143.536 6.7242 143.532 6.58725C143.532 6.29789 143.569 6.00964 143.639 5.72886C143.728 5.42277 143.862 5.13136 144.038 4.86426L144.24 4.94512C144.102 5.2716 144.021 5.61853 144 5.97145C144.003 6.06325 144.022 6.15384 144.057 6.23892C144.102 6.34778 144.174 6.44397 144.266 6.51882C144.389 6.62011 144.53 6.69813 144.683 6.74897C144.905 6.81209 145.135 6.84145 145.365 6.83605H150.522C150.524 6.7054 150.505 6.57535 150.465 6.4504C150.425 6.3355 150.371 6.22503 150.307 6.12074C150.251 6.01823 150.184 5.92225 150.105 5.83461L149.897 5.60446L150.383 4.50349C150.465 4.62789 150.541 4.75852 150.623 4.90781C150.705 5.058 150.775 5.21393 150.832 5.37432C150.895 5.5278 150.946 5.68585 150.984 5.84704C151.044 6.08283 151.057 6.32794 151.022 6.56858C151.008 6.67611 150.984 6.78226 150.952 6.88581C150.952 7.01022 150.882 7.14084 150.832 7.29635C150.781 7.45188 150.731 7.62605 150.661 7.82507L145.011 7.83753ZM148.001 4.0432L147.173 3.55802L146.8 4.0432L145.934 3.53937L146.522 2.76807L147.337 3.26568L147.723 2.76807L148.589 3.29056L148.001 4.0432Z" fill="white"/>
<path d="M153.518 7.83745C153.408 7.83845 153.3 7.81281 153.202 7.7628C153.133 7.73257 153.07 7.68801 153.019 7.6322C152.946 7.54021 152.892 7.43439 152.861 7.3212C152.819 7.16645 152.791 7.00821 152.779 6.84843C152.779 6.58719 152.734 6.30106 152.703 5.99005C152.671 5.67905 152.652 5.36804 152.621 5.04459C152.59 4.72114 152.571 4.42257 152.539 4.06181C152.507 3.70103 152.488 3.40246 152.456 3.09146C152.425 2.78045 152.406 2.46944 152.381 2.18953C152.355 1.90963 152.343 1.64838 152.324 1.42446L152.956 0.323486L153.354 6.23886C153.362 6.39008 153.4 6.5382 153.467 6.67427C153.504 6.73463 153.558 6.78325 153.622 6.81419C153.686 6.84512 153.757 6.85702 153.828 6.84843H154.7V7.83745H153.518Z" fill="white"/>
<path d="M159.08 1.05743L158.069 1.4804L156.956 1.94069L155.851 2.41343L154.839 2.85505L155.597 3.38999C155.88 3.60148 156.164 3.8254 156.451 4.06177C156.735 4.29813 157.007 4.5345 157.253 4.77709C157.47 4.98041 157.667 5.20323 157.842 5.44264C157.95 5.59287 158.043 5.7533 158.12 5.92159C158.185 6.08367 158.217 6.25711 158.214 6.43165C158.214 6.54709 158.2 6.66211 158.17 6.77376C158.17 6.89816 158.113 7.01635 158.075 7.14074C158.037 7.26512 157.993 7.38333 157.949 7.50154L157.829 7.8374H154.719H154.561C154.504 7.82536 154.449 7.80652 154.397 7.78144C154.347 7.75759 154.303 7.72607 154.264 7.6881C154.232 7.65206 154.214 7.60564 154.214 7.55749V7.15319C154.213 7.10302 154.231 7.05434 154.264 7.01635C154.303 6.97838 154.347 6.94687 154.397 6.92304C154.449 6.89792 154.504 6.87912 154.561 6.86706H154.719H157.696C157.65 6.65939 157.555 6.4654 157.418 6.30102C157.25 6.07527 157.06 5.86686 156.849 5.67901C156.622 5.47374 156.375 5.26848 156.11 5.05699C155.844 4.84551 155.592 4.66512 155.345 4.49096L155.3 4.82684L154.492 4.44741C154.337 4.37653 154.207 4.26031 154.121 4.11454C154.035 3.96876 153.997 3.8005 154.011 3.63258C154.019 3.41929 154.064 3.2089 154.144 3.01056C154.247 2.73573 154.38 2.4729 154.542 2.22682C154.633 2.13235 154.74 2.05443 154.858 1.99667C155.029 1.90337 155.244 1.79763 155.49 1.67944L156.4 1.28136L157.475 0.833502L159.548 0L159.08 1.05743Z" fill="white"/>
<path d="M164.515 7.83742C164.385 7.83929 164.256 7.82252 164.13 7.78763C163.999 7.75618 163.881 7.68425 163.795 7.58238L163.694 7.6384C163.684 7.87668 163.643 8.11281 163.574 8.34128C163.503 8.58228 163.408 8.81569 163.29 9.03792C163.174 9.25801 163.036 9.46634 162.878 9.65992C162.734 9.85292 162.566 10.0284 162.38 10.1824C162.212 10.3207 162.027 10.4377 161.829 10.5307C161.653 10.6196 161.459 10.6664 161.261 10.6676C160.94 10.6614 160.622 10.6047 160.319 10.4996C159.897 10.3501 159.487 10.1692 159.093 9.95852L159.175 9.75943L159.541 9.8714L159.826 9.94606C159.905 9.96798 159.985 9.98252 160.066 9.98961C160.149 9.9962 160.231 9.9962 160.312 9.98961C160.55 9.98596 160.785 9.94391 161.008 9.86517C161.247 9.77777 161.477 9.66952 161.697 9.54178C161.917 9.40652 162.129 9.25693 162.329 9.09388C162.516 8.9387 162.691 8.77027 162.854 8.59009C162.99 8.44523 163.11 8.28432 163.207 8.11109C163.283 7.99976 163.329 7.87138 163.34 7.73791C163.337 7.68633 163.324 7.63575 163.302 7.58861C163.274 7.51983 163.239 7.45335 163.201 7.38959C163.155 7.31007 163.104 7.23327 163.049 7.15943C162.997 7.07775 162.939 6.99886 162.878 6.92307L162.607 6.54363L162.348 6.16421L162.765 5.2063C162.82 5.28432 162.87 5.36531 162.917 5.44889C162.967 5.52975 163.017 5.61061 163.081 5.69769C163.144 5.78478 163.258 5.95894 163.365 6.08956C163.465 6.21985 163.577 6.34064 163.7 6.45033C163.818 6.55398 163.947 6.64375 164.086 6.7178C164.218 6.78495 164.366 6.81911 164.515 6.81732H164.907V7.83742H164.515Z" fill="white"/>
<path d="M171.942 4.88929C171.973 4.94527 172.005 5.02613 172.055 5.13809C172.106 5.25006 172.144 5.36202 172.189 5.49265C172.232 5.62327 172.27 5.76634 172.308 5.9094C172.338 6.04428 172.353 6.18192 172.352 6.31993C172.352 6.50175 172.334 6.68308 172.296 6.86108C172.248 7.06239 172.169 7.25535 172.062 7.4333C171.986 7.56527 171.902 7.69207 171.809 7.81279C171.776 7.8537 171.734 7.88637 171.686 7.908C171.637 7.92964 171.584 7.9396 171.531 7.93716C171.472 7.93179 171.415 7.9171 171.36 7.8936L171.101 7.76923C171 7.71944 170.899 7.66972 170.785 7.6013L170.469 7.41468L170.191 7.22182C170.125 7.17561 170.062 7.12575 170.001 7.07257C169.876 7.18557 169.73 7.27419 169.572 7.33379C169.385 7.40536 169.192 7.46153 168.997 7.50179C168.788 7.548 168.577 7.58124 168.365 7.6013C168.162 7.6013 167.972 7.6324 167.809 7.6324C167.68 7.64644 167.551 7.61076 167.448 7.53289C167.413 7.499 167.386 7.45816 167.369 7.4131C167.352 7.36797 167.343 7.31975 167.347 7.27161H167.296C167.191 7.38029 167.061 7.46332 166.917 7.51419C166.729 7.58963 166.535 7.64787 166.336 7.68835C166.102 7.74029 165.866 7.77769 165.628 7.80032C165.387 7.82483 165.144 7.83729 164.901 7.83765H164.737C164.68 7.82561 164.625 7.80677 164.572 7.7817C164.524 7.75935 164.481 7.72761 164.446 7.68835C164.429 7.67123 164.416 7.65074 164.407 7.62824C164.398 7.60582 164.395 7.58175 164.395 7.55775V7.15343C164.394 7.12842 164.398 7.10333 164.406 7.07977C164.415 7.0562 164.428 7.03468 164.446 7.01658C164.481 6.97736 164.524 6.94562 164.572 6.92329C164.625 6.89816 164.68 6.87936 164.737 6.8673H164.901H165.123H165.35C165.6 6.85642 165.849 6.82941 166.096 6.78644C166.31 6.75019 166.521 6.69821 166.728 6.63094C166.907 6.57084 167.08 6.49594 167.246 6.40701C167.373 6.34083 167.483 6.24727 167.568 6.13332C167.694 5.95084 167.81 5.7619 167.916 5.56729C168.028 5.36693 168.125 5.15907 168.207 4.94527L168.554 5.06346C168.491 5.30037 168.414 5.53307 168.32 5.76011C168.238 5.95473 168.144 6.14382 168.036 6.32614L167.954 6.46921C167.934 6.49323 167.919 6.52065 167.91 6.55008C167.91 6.61849 168.03 6.65582 168.283 6.65582C168.409 6.65582 168.535 6.65582 168.674 6.65582C168.81 6.64422 168.946 6.62344 169.079 6.59361C169.205 6.59361 169.332 6.53141 169.458 6.48787C169.568 6.45032 169.672 6.39799 169.768 6.33237C169.861 6.27007 169.939 6.18699 169.995 6.08978C170.07 5.97435 170.134 5.85377 170.191 5.72901C170.255 5.6002 170.31 5.46719 170.356 5.33092C170.406 5.19408 170.45 5.06968 170.482 4.97015L170.836 5.06968C170.836 5.16298 170.792 5.26872 170.766 5.38068C170.741 5.49264 170.709 5.60461 170.677 5.71035C170.646 5.8161 170.608 5.92806 170.57 6.0338C170.541 6.13157 170.506 6.22719 170.463 6.31993C170.539 6.40952 170.629 6.48713 170.728 6.55008C170.862 6.64912 171.001 6.7405 171.146 6.82376C171.291 6.91706 171.43 6.9917 171.563 7.06013C171.641 7.10516 171.726 7.13672 171.815 7.15343C171.824 7.15781 171.834 7.16008 171.844 7.16008C171.854 7.16008 171.863 7.15781 171.872 7.15343C171.883 7.12754 171.883 7.09846 171.872 7.07257C171.872 7.07257 171.872 6.98549 171.872 6.8984C171.865 6.78929 171.849 6.68103 171.822 6.57496C171.792 6.43597 171.748 6.30045 171.689 6.17065C171.627 6.02188 171.542 5.88343 171.436 5.76011L171.942 4.88929ZM170.747 3.70746L169.92 3.22229L169.546 3.70746L168.674 3.20363L169.262 2.43233L170.083 2.92994L170.469 2.43233L171.335 2.95482L170.747 3.70746ZM170.008 2.53807L169.123 2.00935L169.685 1.26294L170.577 1.80409L170.008 2.53807Z" fill="white"/>
<path d="M181.567 4.88901C181.567 4.83384 181.553 4.77964 181.524 4.73243C181.495 4.68521 181.453 4.64683 181.403 4.62155C181.287 4.56523 181.159 4.53748 181.03 4.54069C180.853 4.55456 180.682 4.61002 180.531 4.70241C180.324 4.813 180.131 4.94657 179.956 5.1005C179.776 5.25911 179.617 5.43876 179.482 5.63543C179.367 5.79415 179.301 5.98203 179.292 6.17659C179.294 6.21371 179.305 6.24977 179.325 6.28135C179.345 6.31293 179.373 6.33896 179.406 6.35697C179.504 6.42388 179.613 6.47239 179.728 6.50003C179.89 6.54773 180.054 6.58309 180.222 6.60578C180.411 6.60578 180.62 6.66798 180.853 6.69286C181.087 6.71774 181.188 6.74262 181.315 6.77373C181.431 6.79856 181.541 6.84731 181.637 6.91679C181.721 6.98422 181.783 7.07532 181.814 7.17805C181.856 7.31503 181.875 7.45788 181.871 7.60102C181.869 7.70161 181.856 7.80169 181.833 7.89956C181.807 8.01776 181.773 8.13418 181.732 8.24788C181.688 8.36609 181.643 8.4843 181.593 8.60243C181.542 8.72064 181.485 8.83262 181.428 8.9259C181.238 9.06896 181.011 9.21827 180.759 9.39243C180.489 9.56759 180.208 9.72549 179.918 9.86512C179.602 10.0141 179.274 10.1369 178.938 10.2321C178.591 10.3317 178.231 10.382 177.87 10.3814C177.495 10.3938 177.122 10.3347 176.77 10.2073C176.507 10.1116 176.267 9.96091 176.069 9.76561C175.901 9.58772 175.776 9.37523 175.702 9.14362C175.636 8.92124 175.602 8.69098 175.601 8.45936C175.598 8.19594 175.626 7.93301 175.684 7.67567C175.738 7.44005 175.812 7.20914 175.905 6.98521C175.99 6.77201 176.09 6.56427 176.202 6.36319C176.315 6.17037 176.422 5.99621 176.53 5.82826L176.733 5.90912C176.663 6.06462 176.6 6.22013 176.543 6.36319C176.486 6.50626 176.429 6.65554 176.385 6.80483C176.34 6.95189 176.304 7.10144 176.278 7.2527C176.251 7.41318 176.239 7.57538 176.24 7.73786C176.238 7.97292 176.291 8.20525 176.398 8.41588C176.496 8.61074 176.636 8.78254 176.808 8.91966C176.982 9.05936 177.182 9.16489 177.396 9.23066C177.62 9.3056 177.855 9.34342 178.092 9.34264C178.416 9.34077 178.739 9.29686 179.052 9.21203C179.379 9.12936 179.698 9.01903 180.006 8.88234C180.299 8.75102 180.583 8.59928 180.853 8.42827C181.078 8.28305 181.289 8.11864 181.485 7.93688C181.485 7.91632 181.478 7.89633 181.467 7.87885C181.456 7.86144 181.44 7.84711 181.422 7.83737C181.351 7.79761 181.274 7.76824 181.195 7.75025L180.752 7.67567L180.057 7.61342C179.889 7.59866 179.722 7.57373 179.558 7.53884C179.408 7.51391 179.264 7.46784 179.128 7.40193C179.015 7.35221 178.914 7.28021 178.83 7.19045C178.755 7.11127 178.715 7.00643 178.717 6.89813C178.72 6.64332 178.758 6.39008 178.83 6.14549C178.908 5.87902 179.012 5.62068 179.141 5.37419C179.272 5.1208 179.427 4.87935 179.602 4.65265C179.769 4.4281 179.957 4.21981 180.164 4.03063C180.355 3.86632 180.568 3.72821 180.797 3.62011C180.991 3.51883 181.208 3.46547 181.428 3.4646C181.738 3.4646 181.896 3.64498 181.896 4.00575C181.899 4.05752 181.899 4.10948 181.896 4.16126C181.896 4.22346 181.864 4.2981 181.846 4.37274L181.77 4.62155C181.738 4.70241 181.713 4.78327 181.688 4.85791L181.567 4.88901Z" fill="white"/>
<path d="M187.483 7.83727C187.396 7.8362 187.31 7.81743 187.231 7.78211C187.152 7.74679 187.08 7.69564 187.022 7.63202C186.936 7.5209 186.873 7.39402 186.839 7.25876C186.788 7.08783 186.752 6.91307 186.731 6.73629H186.598C186.552 6.91561 186.495 7.09215 186.428 7.265C186.358 7.42676 186.301 7.5636 186.251 7.66311C186.151 7.71039 186.047 7.74987 185.941 7.78132L185.461 7.89322C185.252 7.93427 185.041 7.96336 184.829 7.98034C184.596 8.00563 184.361 8.0181 184.127 8.01767C183.95 8.0287 183.773 8.0287 183.596 8.01767C183.474 8.00463 183.355 7.97318 183.242 7.92432C183.161 7.88635 183.094 7.82294 183.052 7.74399C183.011 7.65 182.991 7.54791 182.996 7.44539C182.998 7.32869 183.008 7.21227 183.028 7.09707C183.028 6.97266 183.078 6.84826 183.109 6.71764C183.141 6.58701 183.173 6.47505 183.205 6.36309C183.236 6.25112 183.274 6.14538 183.306 6.0583L183.526 6.1205V6.59323C183.527 6.64982 183.543 6.7052 183.574 6.75343C183.604 6.80165 183.646 6.84089 183.697 6.86692C183.893 6.96188 184.112 7.00068 184.329 6.97888C184.525 6.97888 184.727 6.97888 184.93 6.97888C185.125 6.9664 185.319 6.94356 185.511 6.91046C185.688 6.87936 185.853 6.84826 185.998 6.81094C186.121 6.78008 186.241 6.74059 186.358 6.69276C186.408 6.57095 186.45 6.44633 186.485 6.31955C186.524 6.17719 186.55 6.03136 186.56 5.88414L186.156 3.88747L186.681 2.92334C186.788 3.54536 186.883 4.16737 186.971 4.78939C187.06 5.4114 187.168 6.03342 187.307 6.61811C187.341 6.70344 187.4 6.77694 187.477 6.8296C187.56 6.88744 187.66 6.91594 187.762 6.91046H188.45V7.83727H187.483Z" fill="white"/>
<path d="M194.555 6.67446C194.37 6.66817 194.185 6.64104 194.006 6.5936C193.838 6.54949 193.667 6.52649 193.494 6.52518C193.363 6.52507 193.233 6.54393 193.108 6.58116C192.981 6.6175 192.856 6.66325 192.735 6.718C192.61 6.76809 192.489 6.82843 192.375 6.89839L192.04 7.09121C191.882 7.19073 191.711 7.28401 191.534 7.37736C191.349 7.47171 191.157 7.5508 190.959 7.6137C190.726 7.68778 190.487 7.74388 190.245 7.78163C189.943 7.82125 189.64 7.83995 189.335 7.83766H188.444H188.28C188.223 7.82455 188.168 7.80585 188.115 7.78163C188.067 7.75935 188.024 7.72754 187.989 7.68835C187.972 7.67116 187.958 7.65074 187.949 7.62825C187.941 7.60575 187.937 7.58175 187.938 7.55775V7.15342C187.936 7.1284 187.94 7.10331 187.949 7.07975C187.957 7.05619 187.971 7.03467 187.989 7.01658C188.024 6.97734 188.067 6.9456 188.115 6.92327C188.168 6.89911 188.223 6.88035 188.28 6.86729H188.444H189.607C189.95 6.86997 190.293 6.84081 190.63 6.78021C190.9 6.72363 191.166 6.65092 191.427 6.5625C191.644 6.48941 191.855 6.40213 192.059 6.30125C192.242 6.20795 192.42 6.13331 192.578 6.0711C192.362 5.99024 192.154 5.90316 191.945 5.81608L191.351 5.5735C191.153 5.49885 190.964 5.43665 190.782 5.38689C190.599 5.33967 190.41 5.31666 190.22 5.31847C190.137 5.31487 190.055 5.32976 189.98 5.36201C189.915 5.38604 189.854 5.42192 189.803 5.46775C189.753 5.51295 189.709 5.56297 189.67 5.61704C189.637 5.66719 189.602 5.71499 189.562 5.7601L189.367 5.65436C189.444 5.44238 189.532 5.23472 189.632 5.03234C189.707 4.88074 189.8 4.7387 189.91 4.60937C190.004 4.50495 190.118 4.4203 190.245 4.36056C190.378 4.30181 190.523 4.27211 190.669 4.27348C190.798 4.27593 190.928 4.29262 191.054 4.32324L191.503 4.45387C191.661 4.50985 191.825 4.57205 191.996 4.64669C192.166 4.72133 192.337 4.79597 192.514 4.87684L193.146 5.15674C193.367 5.25005 193.589 5.33713 193.778 5.41177C193.985 5.48449 194.196 5.54677 194.41 5.59838C194.618 5.64366 194.83 5.6666 195.042 5.66679L194.555 6.67446Z" fill="white"/>
<path d="M197.772 9.90258L197.286 10.0332C197.132 10.0788 196.982 10.1371 196.837 10.2073C196.736 10.2539 196.646 10.3194 196.572 10.4002C196.493 10.4792 196.421 10.5645 196.357 10.6553L196.186 10.5806C196.214 10.4774 196.251 10.3774 196.3 10.282C196.356 10.1708 196.431 10.0698 196.521 9.98347C196.398 9.93898 196.286 9.86898 196.193 9.77814C196.152 9.74282 196.12 9.69977 196.097 9.65162C196.074 9.60355 196.062 9.55132 196.059 9.49824C196.067 9.37652 196.106 9.25867 196.174 9.15615C196.249 9.02339 196.34 8.90017 196.445 8.7892C196.551 8.6783 196.67 8.58022 196.799 8.49683C196.902 8.42318 197.026 8.38199 197.153 8.37862C197.2 8.37547 197.247 8.38156 197.292 8.39653C197.336 8.4115 197.377 8.435 197.412 8.46573C197.466 8.52283 197.496 8.59885 197.494 8.67722C197.492 8.80589 197.442 8.9294 197.355 9.02554C197.226 8.9188 197.062 8.86141 196.894 8.86378C196.795 8.86349 196.698 8.89157 196.616 8.94466C196.573 8.96601 196.537 8.99896 196.512 9.0398C196.487 9.08056 196.475 9.12742 196.477 9.17485C196.476 9.23359 196.496 9.29069 196.534 9.33654C196.578 9.38261 196.629 9.42237 196.685 9.45475C196.75 9.49172 196.821 9.51894 196.894 9.53556C196.966 9.54437 197.038 9.54437 197.109 9.53556C197.238 9.53234 197.365 9.51135 197.488 9.47338C197.662 9.43053 197.833 9.37867 198 9.31791L197.772 9.90258ZM197.109 7.83751L196.572 1.47426L197.204 0.373291L197.336 2.37618C197.368 2.94222 197.406 3.42739 197.431 3.83792C197.456 4.24845 197.482 4.58434 197.501 4.85181C197.52 5.11928 197.532 5.33698 197.538 5.47382C197.545 5.61067 197.538 5.76617 197.538 5.84703C197.538 5.9279 197.538 5.9901 197.538 6.03364C197.538 6.24172 197.523 6.44953 197.494 6.65565C197.47 6.82535 197.437 6.99357 197.393 7.15949C197.349 7.31502 197.305 7.44563 197.26 7.5576C197.22 7.64737 197.173 7.73456 197.121 7.81881L197.109 7.83751Z" fill="white"/>
<path d="M6.66824 4.36655C6.67645 4.86809 6.60393 5.36774 6.45336 5.84695C6.32868 6.26312 6.11295 6.6474 5.82133 6.9728C5.53031 7.28959 5.16613 7.53275 4.75953 7.6819C4.28509 7.85728 3.78096 7.94168 3.27429 7.93072C2.76685 7.9444 2.26179 7.85764 1.78904 7.67567C1.39556 7.51971 1.04639 7.27211 0.771487 6.95414C0.497816 6.62427 0.299505 6.24029 0.190028 5.82829C0.0580475 5.3521 -0.00577181 4.86011 0.000419169 4.36655C-0.00583833 3.87709 0.0579927 3.38919 0.190028 2.91725C0.305331 2.5125 0.507972 2.13697 0.784131 1.81628C1.06513 1.50538 1.41866 1.26631 1.81432 1.11963C2.28517 0.947812 2.78489 0.865489 3.28693 0.877044C3.79297 0.867165 4.2965 0.94941 4.77218 1.11963C5.17522 1.26606 5.53703 1.50487 5.82766 1.81628C6.11758 2.13338 6.33333 2.5092 6.45968 2.91725C6.60454 3.38692 6.67489 3.87577 6.66824 4.36655ZM5.65069 4.36655C5.65449 3.96265 5.60994 3.55971 5.51796 3.16606C5.43836 2.82838 5.29236 2.5093 5.08819 2.22682C4.89756 1.96267 4.64354 1.74899 4.34873 1.6048C4.01385 1.45471 3.64841 1.38235 3.28061 1.39332C2.94229 1.39081 2.60489 1.42841 2.2757 1.50528C2.00619 1.5631 1.75342 1.68004 1.53623 1.84738C1.42304 1.95272 1.33646 2.08266 1.28342 2.22682C1.21167 2.41458 1.15669 2.60813 1.1191 2.80529C1.08117 3.02921 1.04957 3.27181 1.03062 3.53305C1.01166 3.7943 1.03062 4.06798 1.03062 4.34789C1.02759 4.75285 1.0657 5.1571 1.14438 5.5546C1.20533 5.89443 1.33191 6.21959 1.51727 6.51251C1.68709 6.77831 1.92749 6.99341 2.21249 7.13453C2.54704 7.30034 2.91899 7.3795 3.29325 7.36467C3.64846 7.37134 4.00312 7.33372 4.34873 7.2527C4.63589 7.18156 4.90212 7.04524 5.12611 6.85461C5.24062 6.75037 5.32742 6.62009 5.37892 6.47518C5.45596 6.27372 5.51311 6.06542 5.54956 5.85317C5.59593 5.61058 5.62759 5.36549 5.64437 5.11919C5.64437 4.90149 5.65069 4.64024 5.65069 4.36655Z" fill="white"/>
<path d="M14.0313 3.86888C14.0401 3.76539 14.0401 3.66136 14.0313 3.55787C14.0235 3.47746 14.0065 3.39818 13.9808 3.32151L14.7581 3.15356C14.7867 3.22982 14.8057 3.30918 14.815 3.38992C14.8209 3.48522 14.8209 3.58076 14.815 3.67605C14.8123 4.01771 14.7591 4.35715 14.657 4.68372C14.544 5.04882 14.4068 5.40621 14.2462 5.75359C14.0819 6.11436 13.8986 6.4689 13.7027 6.82346L13.1212 7.83732H12.2364C12.091 7.29621 11.933 6.75503 11.7687 6.21388C11.6043 5.67273 11.4274 5.15645 11.2441 4.6775C11.1683 4.93875 11.0861 5.20622 10.9913 5.47368C10.8965 5.74115 10.789 6.01484 10.6816 6.28852C10.5742 6.56221 10.454 6.82968 10.3277 7.09093C10.2013 7.35216 10.0749 7.60097 9.94215 7.83732H9.06993C8.95615 7.41435 8.83612 6.98518 8.70967 6.54355C8.5833 6.10192 8.46953 5.68516 8.35575 5.29952C8.24197 4.91387 8.12827 4.5842 8.03342 4.31051C7.97322 4.12024 7.89271 3.93677 7.79327 3.76314C7.74937 3.69829 7.68815 3.64662 7.61631 3.61385C7.55123 3.58329 7.47974 3.56836 7.40775 3.57031H7.30664V3.2904H7.44568L7.64157 3.25308H7.84386C7.90057 3.24775 7.95771 3.24775 8.01449 3.25308C8.12004 3.24878 8.22545 3.26571 8.32416 3.30284C8.41799 3.33683 8.50083 3.3948 8.5643 3.47079C8.63615 3.56686 8.69562 3.67133 8.74127 3.7818C8.80452 3.92486 8.87404 4.09902 8.94356 4.29185C9.01308 4.48468 9.0826 4.70238 9.15212 4.91387C9.22164 5.12535 9.29749 5.39904 9.36701 5.65406L9.57556 6.41915C9.64508 6.67417 9.70826 6.92298 9.77152 7.16553C9.92315 6.87321 10.0622 6.58087 10.1886 6.27609C10.315 5.97129 10.4224 5.65406 10.5236 5.36794C10.6247 5.08181 10.7132 4.74592 10.789 4.47845C10.8649 4.21099 10.9281 3.89998 10.9787 3.63251L11.7497 3.53299C11.8319 3.73825 11.9203 3.98084 12.0215 4.26697C12.1226 4.55309 12.2237 4.85167 12.3312 5.17512L12.6472 6.17034C12.7546 6.50623 12.8557 6.84211 12.9506 7.16553C13.1338 6.84211 13.2855 6.54355 13.4182 6.25742C13.5425 5.98969 13.6522 5.71561 13.7469 5.43636C13.8342 5.18471 13.9019 4.92686 13.9492 4.66506C14.0013 4.40271 14.0288 4.13619 14.0313 3.86888Z" fill="white"/>
<path d="M19.2391 7.83745V4.64029C19.2456 4.53257 19.2456 4.42457 19.2391 4.31684C19.2224 4.21649 19.1836 4.12095 19.1253 4.03694C19.0648 3.94676 18.9792 3.87553 18.8789 3.83167C18.7466 3.77076 18.6012 3.74297 18.4553 3.75081C18.3323 3.75185 18.2095 3.76435 18.0888 3.78814L17.697 3.88765C17.5642 3.9312 17.4378 3.98096 17.3177 4.03072L16.9828 4.19244V7.83745H16.0601V3.24076H16.8311L16.9575 3.77569L17.3177 3.57665C17.4631 3.4996 17.6129 3.43106 17.7665 3.37138C17.9285 3.30338 18.0954 3.24725 18.2658 3.20344C18.4392 3.15893 18.6175 3.13595 18.7967 3.13501C18.9835 3.13465 19.1692 3.16406 19.3466 3.2221C19.5092 3.27449 19.6581 3.36157 19.7826 3.47712C19.9071 3.59645 20.0041 3.74069 20.067 3.90009C20.1396 4.09948 20.1739 4.3104 20.1682 4.52211V7.83745H19.2391Z" fill="white"/>
<path d="M23.6064 3.13486C23.8203 3.13286 24.0334 3.16221 24.2384 3.22195C24.4355 3.28329 24.6181 3.38268 24.7756 3.51429C24.9509 3.66854 25.0947 3.85432 25.1991 4.06167C25.3317 4.32889 25.4232 4.61397 25.4709 4.90761V4.95737C25.4226 5.01246 25.3648 5.05877 25.3003 5.09421C25.2153 5.14223 25.1238 5.17784 25.0285 5.19996C24.889 5.23634 24.7476 5.26541 24.605 5.28704C24.4407 5.28704 24.2384 5.33058 24.0046 5.34302L22.4877 5.44254V5.73489C22.4545 6.15007 22.5587 6.56468 22.7848 6.91672C22.8917 7.04352 23.0276 7.1435 23.1815 7.2084C23.3353 7.27331 23.5026 7.30125 23.6696 7.28993C23.8414 7.28814 24.0128 7.27152 24.1816 7.24014C24.3585 7.24014 24.5228 7.17172 24.6809 7.12821C24.8388 7.08467 24.9905 7.0349 25.117 6.98514C25.2216 6.9524 25.3231 6.91077 25.4203 6.86074L25.5404 7.12821L25.0916 7.39567C24.9214 7.49138 24.7463 7.57864 24.5671 7.65695C24.3719 7.73518 24.1712 7.79966 23.9667 7.84974C23.7598 7.89967 23.5476 7.92475 23.3347 7.92439C23.0892 7.92768 22.8452 7.88764 22.6142 7.80618C22.3925 7.72429 22.195 7.58968 22.039 7.41437C21.8605 7.21019 21.7289 6.97039 21.6535 6.71146C21.5523 6.37021 21.5054 6.01561 21.5145 5.66025C21.5033 5.26216 21.5588 4.86497 21.6788 4.48464C21.7682 4.19419 21.9214 3.92663 22.1275 3.7009C22.3151 3.50701 22.5469 3.35989 22.8037 3.2717C23.0623 3.18452 23.3332 3.13834 23.6064 3.13486ZM22.8354 3.80042C22.7767 3.84789 22.7293 3.90732 22.6963 3.97459C22.6487 4.06376 22.6105 4.15757 22.5826 4.25449C22.5826 4.36646 22.5257 4.48464 22.5004 4.61526C22.4908 4.74779 22.4908 4.88082 22.5004 5.01335L24.4533 4.93249C24.4281 4.77738 24.3944 4.62372 24.3522 4.4722C24.3138 4.32764 24.2542 4.18936 24.1752 4.06167C24.1044 3.94241 24.0072 3.84036 23.8908 3.7631C23.7664 3.68536 23.621 3.64634 23.4737 3.65114C23.3666 3.6389 23.2585 3.6389 23.1514 3.65114C23.0372 3.68028 22.9299 3.73098 22.8354 3.80042Z" fill="white"/>
<path d="M29.7942 3.2221C29.7942 3.1599 29.7942 3.09148 29.7942 3.02305C29.7908 2.96504 29.7908 2.9069 29.7942 2.84889V0.292402L30.7106 0.0622559V7.83746H30.0786L29.8258 7.40825C29.728 7.47753 29.6268 7.54186 29.5224 7.60111C29.4189 7.66237 29.3112 7.71646 29.2 7.76281C29.0847 7.81511 28.964 7.8548 28.8398 7.88102C28.7073 7.91182 28.5715 7.92644 28.4353 7.92457C28.1859 7.92637 27.9379 7.88639 27.7022 7.80637C27.4634 7.72584 27.247 7.59166 27.0702 7.41448C26.8734 7.21511 26.7244 6.97494 26.634 6.71161C26.5174 6.37333 26.4617 6.01756 26.4698 5.6604C26.4629 5.29973 26.5163 4.94041 26.6277 4.59676C26.7258 4.3023 26.8851 4.03115 27.0954 3.80057C27.3015 3.58448 27.5542 3.41657 27.8349 3.30918C28.1472 3.19026 28.4797 3.13114 28.8145 3.13501C28.9751 3.13708 29.1354 3.14746 29.2949 3.16612L29.7942 3.2221ZM27.4557 5.60442C27.4488 5.86841 27.4785 6.1321 27.5442 6.38816C27.5964 6.5799 27.6866 6.75959 27.8096 6.91688C27.9168 7.05246 28.0585 7.15764 28.2204 7.2217C28.3877 7.28532 28.5657 7.31698 28.745 7.31497C28.9339 7.31512 29.1224 7.29635 29.3075 7.25895C29.4725 7.22607 29.6335 7.17606 29.7879 7.1097V3.70727L29.3707 3.65751C29.2401 3.65751 29.0947 3.65751 28.9346 3.65751C28.7225 3.65478 28.5108 3.67354 28.3026 3.71349C28.1493 3.7375 28.0042 3.79721 27.8791 3.88766C27.8167 3.94681 27.7654 4.01629 27.7274 4.09292C27.665 4.20149 27.6141 4.31613 27.5758 4.43503C27.5252 4.60171 27.4892 4.77236 27.4683 4.94509C27.4507 5.16442 27.4465 5.38459 27.4557 5.60442Z" fill="white"/>
<path d="M34.4771 0.292402L35.3999 0.0622559V3.17234C35.3999 3.25942 35.3999 3.34028 35.3999 3.40871C35.3999 3.47712 35.3999 3.57665 35.3999 3.65751C35.495 3.58953 35.5942 3.52722 35.6969 3.4709C35.7968 3.41293 35.9002 3.361 36.0066 3.3154C36.1212 3.26994 36.2396 3.23455 36.3605 3.20966C36.4913 3.18135 36.6248 3.16675 36.7587 3.16612C37.0106 3.16597 37.2606 3.20804 37.4982 3.29052C37.7369 3.37104 37.9533 3.50521 38.1302 3.68239C38.3282 3.88087 38.4773 4.1213 38.5663 4.38527C38.6835 4.72343 38.7391 5.07928 38.7306 5.43648C38.7354 5.79749 38.6798 6.15682 38.5663 6.50012C38.4743 6.79405 38.3167 7.06398 38.1049 7.29011C37.8992 7.50812 37.6465 7.67813 37.3654 7.78767C37.0525 7.90394 36.7202 7.9609 36.3858 7.95567C36.0816 7.95459 35.7777 7.93597 35.4757 7.89964C35.1422 7.85902 34.8125 7.79247 34.4897 7.70062L34.4771 0.292402ZM37.7383 5.45513C37.7422 5.19333 37.7125 4.93209 37.6499 4.67762C37.5991 4.48534 37.5088 4.30537 37.3844 4.1489C37.2777 4.01288 37.1358 3.90761 36.9736 3.84412C36.8063 3.78045 36.6283 3.74879 36.449 3.75081C36.2663 3.75009 36.0841 3.76886 35.9054 3.80679C35.7334 3.84421 35.5644 3.89411 35.3999 3.95608V7.3523L35.8233 7.40825H36.2594C36.4606 7.40847 36.6615 7.39185 36.8598 7.35853C37.0155 7.33246 37.1627 7.27063 37.2896 7.17814C37.352 7.11897 37.4033 7.04949 37.4413 6.97286C37.5023 6.8579 37.5511 6.73699 37.5866 6.61208C37.639 6.44551 37.6771 6.27489 37.7004 6.10204C37.7266 5.88738 37.7392 5.67133 37.7383 5.45513Z" fill="white"/>
<path d="M42.9905 3.96215C42.9905 3.89995 42.9905 3.83775 42.9905 3.76933C42.9944 3.70304 42.9944 3.63657 42.9905 3.57028C42.9905 3.50808 42.9905 3.45832 42.9526 3.40856L42.9146 3.2966L43.711 3.11621C43.7534 3.20857 43.7791 3.30751 43.7869 3.40856C43.7965 3.5307 43.7965 3.6534 43.7869 3.77555C43.7803 4.08408 43.7379 4.39087 43.6604 4.68991C43.5718 5.0457 43.4578 5.3949 43.3192 5.7349C43.1801 6.08945 43.0158 6.45022 42.8325 6.8172C42.6492 7.18417 42.4469 7.5201 42.2511 7.83733C42.0551 8.15456 41.9603 8.29139 41.8023 8.52774C41.6443 8.76408 41.4863 9.00674 41.322 9.23685C41.1576 9.46696 40.9744 9.69091 40.7911 9.9024C40.6214 10.1056 40.4332 10.293 40.2285 10.4622C40.0478 10.6148 39.8482 10.7443 39.6345 10.8479C39.4364 10.9381 39.2207 10.9848 39.0025 10.9847C38.8875 10.9867 38.7728 10.9742 38.6611 10.9474C38.5708 10.9221 38.4854 10.8821 38.4083 10.8292V10.5431H38.5474H38.6865C38.8482 10.539 39.0065 10.4963 39.1478 10.4187C39.3338 10.3234 39.5113 10.2132 39.6787 10.089C39.872 9.94288 40.0577 9.7872 40.2349 9.6225C40.4182 9.4421 40.6015 9.25555 40.7721 9.06269C40.9428 8.86983 41.1008 8.68327 41.2461 8.49041C41.3777 8.31847 41.5 8.13994 41.6127 7.95546C41.4358 7.45168 41.2588 6.98515 41.0881 6.54352C40.9175 6.10189 40.7532 5.7038 40.6015 5.35547C40.4498 5.00714 40.3107 4.68991 40.1844 4.43489C40.0579 4.17986 39.9505 3.98081 39.862 3.81287C39.805 3.71371 39.7191 3.63357 39.6155 3.58272C39.5303 3.53693 39.4345 3.51337 39.3374 3.5143H39.2615V3.23439L39.5839 3.16597C39.7173 3.14152 39.8527 3.12903 39.9884 3.12865C40.1037 3.12696 40.2186 3.14163 40.3297 3.17219C40.4375 3.19887 40.5331 3.26015 40.6015 3.34635C40.7366 3.51837 40.8491 3.70646 40.9365 3.90617C41.0628 4.1612 41.1893 4.45354 41.322 4.78943C41.4547 5.12532 41.5937 5.47987 41.7391 5.87174C41.8845 6.26361 42.0172 6.64304 42.1499 7.03491C42.3069 6.75971 42.4462 6.47509 42.5671 6.18275C42.6725 5.92219 42.757 5.65391 42.8199 5.38035C42.882 5.13311 42.9242 4.88146 42.9462 4.62771C42.9714 4.40665 42.9862 4.18456 42.9905 3.96215Z" fill="white"/>
</g>
<defs>
<clipPath id="clip0_601_4259">
<rect width="198" height="48" fill="white"/>
</clipPath>
</defs>
</svg>
