<svg width="186" height="64" viewBox="0 0 186 64" fill="none" xmlns="http://www.w3.org/2000/svg">
<g clip-path="url(#clip0_12_2394)">
<mask id="mask0_12_2394" style="mask-type:luminance" maskUnits="userSpaceOnUse" x="0" y="0" width="186" height="64">
<path d="M186 0H0V64H186V0Z" fill="white"/>
</mask>
<g mask="url(#mask0_12_2394)">
<path d="M24.1258 58.893C22.721 59.0742 21.3251 59.1398 19.9164 59.1179C13.5029 59.0716 7.05492 55.7075 3.73807 50.0939C2.37547 47.8032 1.59428 45.1769 1.42523 42.5108C1.36504 41.3218 1.32919 40.1096 1.30101 38.9218C1.21137 36.1117 1.26259 32.1782 1.22289 29.3206C1.21521 26.5375 1.06153 22.4728 1.08971 19.7425C1.14093 18.6653 1.18319 17.5546 1.40987 16.4902H1.2818C0.966765 17.5392 0.73497 18.6126 0.599222 19.7014C0.189417 22.4536 0.267536 26.5221 0.202224 29.3193C0.202224 32.1525 -0.0244494 42.1226 0.00116339 43.7796C0.167646 49.7686 2.87236 55.7217 7.53004 59.5614C12.3043 63.5464 19.2159 65.1481 25.167 63.1196C29.6262 61.5127 33.1454 57.988 35.4185 53.9362L35.2687 53.868C32.4346 56.9866 28.156 58.4289 24.1246 58.8917" fill="white"/>
<path d="M27.7962 41.9656C24.0541 38.1092 20.7155 36.5113 17.9404 35.8082L18.0134 35.8005C23.4458 34.9945 27.9563 29.8796 27.9563 24.2916C27.9563 18.2023 22.8516 12.7583 16.7865 12.7583V12.7545H3.09137C3.44098 12.0693 4.99696 10.2619 6.24046 9.27338C8.68136 7.33231 11.5295 6.10725 14.5159 5.43495C20.1597 4.13405 26.2479 5.0326 31.0234 8.39412C34.7654 10.9882 37.5546 15.1069 38.2641 19.669C38.6291 21.8749 38.5599 24.7017 38.6381 26.9474C38.656 29.323 38.6842 31.9607 38.6803 34.3209C38.6675 37.5898 38.8596 40.8627 38.7649 44.1265C38.7226 45.1767 38.6457 46.2334 38.4588 47.2656L38.6176 47.3402C38.9211 46.3182 39.1004 45.2551 39.231 44.2011C39.5729 40.9269 39.6382 37.6078 39.6933 34.3209C39.7061 31.1496 39.9891 20.9571 39.8649 19.4865C39.4308 12.3868 35.4839 5.61106 29.096 2.23411C25.8637 0.498721 22.1204 -0.234 18.4629 0.0655158C10.9968 0.705683 5.71412 6.19981 2.76737 12.7275L2.66235 12.955H9.35241C15.4508 13.3008 23.4484 15.085 23.4484 24.2865C23.4484 33.4879 15.3458 35.3454 9.26533 35.7066H5.16216V35.9084H9.32168C10.5716 35.9586 16.0822 36.6283 22.8747 44.1188C28.1112 49.8983 35.3148 52.8202 42.8501 49.9163C35.2661 52.0116 33.2325 47.5561 27.7962 41.9643" fill="white"/>
</g>
<mask id="mask1_12_2394" style="mask-type:luminance" maskUnits="userSpaceOnUse" x="0" y="0" width="186" height="64">
<path d="M186 0H0V64H186V0Z" fill="white"/>
</mask>
<g mask="url(#mask1_12_2394)">
<path d="M71.4698 12.5771H73.9842V29.9285H71.4698V12.5771Z" fill="white"/>
</g>
<mask id="mask2_12_2394" style="mask-type:luminance" maskUnits="userSpaceOnUse" x="0" y="0" width="186" height="64">
<path d="M186 0H0V64H186V0Z" fill="white"/>
</mask>
<g mask="url(#mask2_12_2394)">
<path d="M89.8932 12.5771L84.0663 21.4572L78.2163 12.5771H75.3887L81.952 22.5203V29.9285H84.4646V22.5203L91.0278 12.5771H89.8932Z" fill="white"/>
</g>
<mask id="mask3_12_2394" style="mask-type:luminance" maskUnits="userSpaceOnUse" x="0" y="0" width="186" height="64">
<path d="M186 0H0V64H186V0Z" fill="white"/>
</mask>
<g mask="url(#mask3_12_2394)">
<path d="M108.666 13.4256H112.306C114.353 13.4256 116.09 14.1634 117.33 15.5582C118.574 16.9606 119.233 18.9287 119.233 21.2528C119.233 23.577 118.574 25.545 117.33 26.9475C116.09 28.3422 114.353 29.0801 112.306 29.0801H108.666V13.4256ZM112.619 12.5771H106.152V29.9285H112.619C117.878 29.9285 121.843 26.1993 121.843 21.2528C121.843 16.3063 117.878 12.5771 112.619 12.5771Z" fill="white"/>
</g>
<mask id="mask4_12_2394" style="mask-type:luminance" maskUnits="userSpaceOnUse" x="0" y="0" width="186" height="64">
<path d="M186 0H0V64H186V0Z" fill="white"/>
</mask>
<g mask="url(#mask4_12_2394)">
<path d="M136.356 20.6204H126.732V12.5771H124.218V29.9285H126.732V21.6346H136.356V29.9285H138.87V12.5771H136.356V20.6204Z" fill="white"/>
</g>
<mask id="mask5_12_2394" style="mask-type:luminance" maskUnits="userSpaceOnUse" x="0" y="0" width="186" height="64">
<path d="M186 0H0V64H186V0Z" fill="white"/>
</mask>
<g mask="url(#mask5_12_2394)">
<path d="M165.314 12.5771H167.828V29.9285H165.314V12.5771Z" fill="white"/>
</g>
<mask id="mask6_12_2394" style="mask-type:luminance" maskUnits="userSpaceOnUse" x="0" y="0" width="186" height="64">
<path d="M186 0H0V64H186V0Z" fill="white"/>
</mask>
<g mask="url(#mask6_12_2394)">
<path d="M68.5961 27.8113L66.4882 24.1991C66.0489 23.4046 65.3958 22.8506 64.4136 22.456C67.1464 21.8749 68.9355 19.9853 68.9355 17.5892C68.9355 14.7328 66.218 12.5784 62.613 12.5784H55.7833V29.9297H58.2972V13.4255H62.2019C64.7068 13.4255 66.3243 15.0696 66.3243 17.6123C66.3243 19.9981 64.9092 21.6256 62.4426 21.9572C61.4719 22.0883 60.4948 22.0806 59.8468 22.0755C59.7328 22.0755 59.6278 22.0742 59.5318 22.0742H59.3512V22.3159H59.7917C60.9494 22.3159 61.6461 22.3146 62.166 22.4997C62.7308 22.7015 63.2033 23.2954 63.6516 24.0615C63.9448 24.5629 66.0835 28.3897 66.1053 28.4296C66.451 29.0363 66.8929 29.5299 67.4166 29.8963L67.4627 29.9284H70.5504L70.0906 29.5994C69.5797 29.233 68.979 28.517 68.5948 27.8113" fill="white"/>
</g>
<mask id="mask7_12_2394" style="mask-type:luminance" maskUnits="userSpaceOnUse" x="0" y="0" width="186" height="64">
<path d="M186 0H0V64H186V0Z" fill="white"/>
</mask>
<g mask="url(#mask7_12_2394)">
<path d="M157.589 21.7247H152.123L154.865 15.4438L157.589 21.7247ZM155.061 12.5759L147.48 29.9273H148.552L151.695 22.7389H158.037L161.154 29.9273H163.798L156.24 12.5759H155.061Z" fill="white"/>
</g>
<mask id="mask8_12_2394" style="mask-type:luminance" maskUnits="userSpaceOnUse" x="0" y="0" width="186" height="64">
<path d="M186 0H0V64H186V0Z" fill="white"/>
</mask>
<g mask="url(#mask8_12_2394)">
<path d="M184.043 27.8113L181.935 24.1991C181.496 23.4046 180.843 22.8506 179.862 22.456C182.595 21.8749 184.384 19.9853 184.384 17.5892C184.384 14.7328 181.666 12.5784 178.061 12.5784H171.232V29.9297H173.746V13.4255H177.65C180.155 13.4255 181.773 15.0696 181.773 17.6123C181.773 19.9981 180.358 21.6256 177.891 21.9572C176.92 22.0883 175.943 22.0806 175.295 22.0755C175.181 22.0755 175.076 22.0742 174.98 22.0742H174.8V22.3159H175.24C176.398 22.3159 177.094 22.3146 177.614 22.4997C178.179 22.7015 178.652 23.2954 179.1 24.0615C179.393 24.5629 181.532 28.3897 181.554 28.4296C181.899 29.0363 182.341 29.5299 182.865 29.8963L182.911 29.9284H185.999L185.539 29.5994C185.028 29.233 184.427 28.517 184.043 27.8113Z" fill="white"/>
</g>
<mask id="mask9_12_2394" style="mask-type:luminance" maskUnits="userSpaceOnUse" x="0" y="0" width="186" height="64">
<path d="M186 0H0V64H186V0Z" fill="white"/>
</mask>
<g mask="url(#mask9_12_2394)">
<path d="M98.4197 21.7247H92.9539L95.6957 15.4438L98.4197 21.7247ZM95.8917 12.5759L88.3103 29.9273H89.3822L92.5249 22.7389H98.8666L101.984 29.9273H104.627L97.0699 12.5759H95.8904H95.8917Z" fill="white"/>
</g>
<mask id="mask10_12_2394" style="mask-type:luminance" maskUnits="userSpaceOnUse" x="0" y="0" width="186" height="64">
<path d="M186 0H0V64H186V0Z" fill="white"/>
</mask>
<g mask="url(#mask10_12_2394)">
<path d="M69.4825 42.4849C69.772 42.4849 70.0205 42.3808 70.2203 42.1738C70.4188 41.9681 70.52 41.7175 70.52 41.4282C70.52 41.139 70.4188 40.8883 70.2203 40.6827C70.0205 40.477 69.772 40.3716 69.4825 40.3716C69.193 40.3716 68.9292 40.477 68.7294 40.6827C68.5308 40.8883 68.4309 41.139 68.4309 41.4282C68.4309 41.7175 68.5321 41.9681 68.7294 42.1738C68.9292 42.3808 69.1828 42.4849 69.4825 42.4849Z" fill="white"/>
<path d="M78.9875 52.2559C78.6993 52.2559 78.4495 52.3574 78.2445 52.5567C78.0396 52.7572 77.9346 53.0053 77.9346 53.2971C77.9346 53.5889 78.0383 53.8537 78.2445 54.053C78.4495 54.2522 78.6993 54.3538 78.9875 54.3538C79.2757 54.3538 79.5254 54.2522 79.7304 54.053C79.9353 53.8524 80.0403 53.5979 80.0403 53.2971C80.0403 52.9963 79.9366 52.7572 79.7304 52.5567C79.5254 52.3574 79.2757 52.2559 78.9875 52.2559Z" fill="white"/>
<path d="M81.5641 52.2559C81.2759 52.2559 81.0249 52.3561 80.8148 52.5554C80.6034 52.7559 80.4958 53.0053 80.4958 53.2971C80.4958 53.5889 80.6034 53.8537 80.8148 54.0542C81.0249 54.2522 81.2759 54.3538 81.5641 54.3538C81.8523 54.3538 82.1021 54.2522 82.307 54.053C82.5132 53.8524 82.617 53.5979 82.617 53.2971C82.617 52.9963 82.5132 52.7572 82.307 52.5567C82.1021 52.3574 81.8523 52.2559 81.5641 52.2559Z" fill="white"/>
</g>
<mask id="mask11_12_2394" style="mask-type:luminance" maskUnits="userSpaceOnUse" x="0" y="0" width="186" height="64">
<path d="M186 0H0V64H186V0Z" fill="white"/>
</mask>
<g mask="url(#mask11_12_2394)">
<path d="M82.427 44.2255H80.7455V50.4317H76.7845V38.7673H75.1184V51.1658H82.427V44.2255Z" fill="white"/>
</g>
<mask id="mask12_12_2394" style="mask-type:luminance" maskUnits="userSpaceOnUse" x="0" y="0" width="186" height="64">
<path d="M186 0H0V64H186V0Z" fill="white"/>
</mask>
<g mask="url(#mask12_12_2394)">
<path d="M94.9388 38.7673H96.604V51.1645H94.9388V38.7673Z" fill="white"/>
</g>
<mask id="mask13_12_2394" style="mask-type:luminance" maskUnits="userSpaceOnUse" x="0" y="0" width="186" height="64">
<path d="M186 0H0V64H186V0Z" fill="white"/>
</mask>
<g mask="url(#mask13_12_2394)">
<path d="M112.233 38.7673H113.899V51.1645H112.233V38.7673Z" fill="white"/>
</g>
<mask id="mask14_12_2394" style="mask-type:luminance" maskUnits="userSpaceOnUse" x="0" y="0" width="186" height="64">
<path d="M186 0H0V64H186V0Z" fill="white"/>
</mask>
<g mask="url(#mask14_12_2394)">
<path d="M124.61 52.2559C124.322 52.2559 124.07 52.3561 123.861 52.5554C123.648 52.7559 123.542 53.0053 123.542 53.2971C123.542 53.5889 123.649 53.8537 123.861 54.0542C124.07 54.2522 124.322 54.3538 124.61 54.3538C124.898 54.3538 125.148 54.2522 125.353 54.053C125.559 53.8524 125.663 53.5979 125.663 53.2971C125.663 52.9963 125.558 52.7572 125.353 52.5567C125.148 52.3574 124.898 52.2559 124.61 52.2559Z" fill="white"/>
<path d="M122.034 52.2559C121.745 52.2559 121.496 52.3574 121.291 52.5567C121.084 52.7572 120.981 53.0053 120.981 53.2971C120.981 53.5889 121.084 53.8537 121.291 54.053C121.496 54.2522 121.745 54.3538 122.034 54.3538C122.322 54.3538 122.572 54.2522 122.777 54.053C122.981 53.8524 123.086 53.5979 123.086 53.2971C123.086 52.9963 122.983 52.7572 122.777 52.5567C122.572 52.3574 122.322 52.2559 122.034 52.2559Z" fill="white"/>
<path d="M91.3057 50.4331H88.2527C87.209 50.4318 87.0732 49.2016 87.063 48.672C87.063 48.4239 87.063 48.1501 87.0591 47.9328V44.2255H85.3777V50.8522C85.3828 52.1633 85.1881 52.9462 84.7489 53.3884C84.4364 53.7033 83.9702 53.8062 83.1404 53.7393L82.9944 53.7278V54.0414L83.0802 54.0761C83.5092 54.2458 83.9741 54.3358 84.4274 54.3358C84.9384 54.3358 85.8707 54.2137 86.3689 53.3935C86.8683 52.5721 87.0156 51.4795 87.0514 50.4228C87.3345 50.8972 87.7891 51.1748 88.3436 51.1632H92.9859V38.7661H91.3045V50.4318L91.3057 50.4331Z" fill="white"/>
<path d="M108.662 49.4818C108.662 50.0024 108.606 50.487 108.494 50.9228C108.382 51.3624 108.195 51.7481 107.939 52.0694C107.682 52.3908 107.346 52.6479 106.94 52.8304C106.534 53.013 106.027 53.1042 105.432 53.1042C104.956 53.1042 104.498 53.0335 104.072 52.8947C103.759 52.7932 102.806 52.4821 102.173 51.0591C101.63 49.8378 101.742 48.7722 101.79 48.3171L101.801 48.2117C101.829 47.8942 102.003 46.943 102.251 46.1807L102.29 46.0637L102.009 45.939L101.947 46.0367C101.912 46.0907 101.092 47.3646 100.835 48.3673C100.549 49.4805 100.268 51.5784 101.597 53.1158C102.965 54.6982 104.673 54.6982 105.403 54.6982C105.954 54.6982 106.485 54.616 106.983 54.4553C107.481 54.2933 107.942 54.0581 108.351 53.7573C108.761 53.4552 109.118 53.0862 109.414 52.6595C109.81 52.0887 110.281 51.0706 110.281 49.4651V44.228H108.663V49.4856L108.662 49.4818Z" fill="white"/>
<path d="M106.101 42.4849C106.391 42.4849 106.639 42.3808 106.839 42.1738C107.037 41.9681 107.139 41.7175 107.139 41.4282C107.139 41.139 107.037 40.8883 106.839 40.6827C106.639 40.477 106.391 40.3716 106.101 40.3716C105.812 40.3716 105.548 40.4757 105.348 40.6827C105.149 40.8883 105.048 41.139 105.048 41.4282C105.048 41.7175 105.149 41.9681 105.348 42.1738C105.548 42.3808 105.801 42.4849 106.101 42.4849Z" fill="white"/>
<path d="M131.454 46.1177C132.362 45.1947 133.04 45.0083 133.843 45.0083C134.217 45.0083 134.561 45.0687 134.865 45.1857C135.173 45.3053 135.442 45.4917 135.668 45.7385C135.894 45.9866 136.07 46.3079 136.193 46.6936C136.315 47.0779 136.378 47.5433 136.378 48.0742V50.4305H129.694C129.759 50.1515 129.887 49.6026 129.937 49.4124C129.952 49.3584 129.968 49.2915 129.987 49.2157C130.065 48.9059 130.183 48.4367 130.336 48.0266C130.642 47.2052 131.017 46.5625 131.454 46.1177ZM137.825 46.1241C137.658 45.5932 137.42 45.1292 137.114 44.7448C136.809 44.3617 136.43 44.0596 135.987 43.8475C135.543 43.6354 135.034 43.5275 134.476 43.5275C134.032 43.5275 133.574 43.6123 133.119 43.7781C132.663 43.9439 132.227 44.2023 131.823 44.5456C131.417 44.8901 131.04 45.3323 130.702 45.8593C130.364 46.3864 130.086 47.0201 129.879 47.7412L129.776 48.0935V38.7673H128.159L128.152 50.4369H125.634C125.602 50.4369 125.57 50.4343 125.541 50.4317L125.499 50.4266C125.045 50.3726 124.747 50.1027 124.588 49.6039C124.513 49.3661 124.474 49.0923 124.475 48.7902L124.478 48.3801C124.479 48.1475 124.479 48.0588 124.475 47.8994V44.2229H122.809V49.3738L122.808 49.4136C122.78 50.1181 122.768 50.4099 121.977 50.4305H119.745C118.701 50.4305 118.565 49.199 118.556 48.6694C118.556 48.4213 118.556 48.1475 118.553 47.9302V44.2229H116.871V50.8495C116.876 52.1607 116.682 52.9436 116.242 53.3858C115.93 53.7007 115.464 53.8036 114.634 53.738L114.488 53.7264V54.0401L114.574 54.0735C115.003 54.2432 115.469 54.3332 115.921 54.3332C116.432 54.3332 117.364 54.211 117.862 53.3909C118.362 52.5695 118.509 51.4768 118.546 50.4202C118.824 50.8868 119.276 51.1619 119.81 51.1619C119.819 51.1619 119.829 51.1619 119.838 51.1619H121.7C121.736 51.1632 122.314 51.1645 122.348 51.1645C123.278 51.1645 123.985 50.7827 124.297 50.1412C124.55 50.7853 125.077 51.1837 125.728 51.1645H138.078V47.8839C138.078 47.2476 137.994 46.655 137.827 46.1228" fill="white"/>
<path d="M66.524 46.1176C67.432 45.1947 68.1108 45.0083 68.9137 45.0083C69.2877 45.0083 69.6309 45.0687 69.9369 45.187C70.2443 45.3065 70.5132 45.4929 70.7386 45.7397C70.964 45.9878 71.1407 46.3092 71.2637 46.6948C71.3853 47.0792 71.4481 47.5445 71.4481 48.0754V50.4317H64.7952C64.849 50.1553 64.9578 49.6026 65.0078 49.4123C65.0218 49.3583 65.0385 49.2915 65.0577 49.2144C65.1358 48.9046 65.2536 48.4354 65.406 48.0253C65.7121 47.2026 66.0873 46.5611 66.524 46.1164M72.1845 44.7435C71.8797 44.3604 71.5006 44.0583 71.0575 43.8462C70.6131 43.6341 70.1047 43.5261 69.5463 43.5261C69.102 43.5261 68.6461 43.611 68.1889 43.7768C67.733 43.9439 67.2963 44.2023 66.8929 44.5455C66.4869 44.89 66.1104 45.3322 65.7736 45.8593C65.4355 46.3863 65.1576 47.02 64.9501 47.7412L64.8477 48.0934V44.3604L64.8438 44.2241H63.2264V49.4817C63.2264 50.0023 63.17 50.487 63.0586 50.9228C62.9459 51.3624 62.7602 51.748 62.5028 52.0694C62.2454 52.3908 61.9099 52.6479 61.5039 52.8304C61.098 53.0117 60.5908 53.1042 59.9966 53.1042C59.5189 53.1042 59.0618 53.0335 58.6366 52.8947C58.3228 52.7931 57.37 52.482 56.7374 51.059C56.1944 49.8365 56.3058 48.7709 56.3545 48.3158L56.3647 48.2104C56.3929 47.8929 56.5671 46.9416 56.8155 46.1793L56.8539 46.0624L56.5735 45.9377L56.5107 46.0354C56.4761 46.0894 55.6565 47.3633 55.3991 48.3659C55.1135 49.4804 54.8318 51.5783 56.1611 53.1145C57.5288 54.6969 59.2372 54.6969 59.9672 54.6969C60.5178 54.6969 61.0506 54.6146 61.5475 54.454C62.0456 54.292 62.5067 54.0567 62.9152 53.7559C63.325 53.4539 63.6823 53.0836 63.9781 52.6581C64.2637 52.2455 64.4917 51.7313 64.6389 51.1657H73.1475V47.8865C73.1475 47.2501 73.063 46.6575 72.8965 46.1254C72.7313 45.5957 72.4918 45.1317 72.187 44.746" fill="white"/>
</g>
</g>
<defs>
<clipPath id="clip0_12_2394">
<rect width="186" height="64" fill="white"/>
</clipPath>
</defs>
</svg>
